<mxfile host="drawio-plugin" modified="2021-06-12T13:28:46.407Z" agent="5.0 (Macintosh; Intel Mac OS X 11_4_0) AppleWebKit/537.36 (KHTML, like Gecko) Chrome/87.0.4280.141 Safari/537.36" etag="2ivTU4bycx6xk7lCaLuw" version="14.6.6" type="embed"><diagram id="m3v0bkaI2BycmKcp29cn" name="Dispa"><mxGraphModel dx="3734" dy="580" grid="1" gridSize="10" guides="1" tooltips="1" connect="1" arrows="1" fold="1" page="0" pageScale="1" pageWidth="827" pageHeight="1169" math="0" shadow="0"><root><mxCell id="0"/><mxCell id="1" parent="0"/><mxCell id="R9rB7OafcmL0Vme7xIAX-1" value="" style="rounded=0;whiteSpace=wrap;html=1;strokeColor=#d6b656;fillColor=#FFFCF2;" parent="1" vertex="1"><mxGeometry x="-1592" y="10" width="1522" height="1280" as="geometry"/></mxCell><mxCell id="R9rB7OafcmL0Vme7xIAX-2" value="" style="rounded=0;whiteSpace=wrap;html=1;strokeWidth=3;fillColor=#f9f7ed;strokeColor=#36393d;" parent="1" vertex="1"><mxGeometry x="-1519" y="70" width="1349" height="430" as="geometry"/></mxCell><mxCell id="R9rB7OafcmL0Vme7xIAX-3" value="" style="rounded=0;whiteSpace=wrap;html=1;fillColor=#ffffff;strokeWidth=3;" parent="1" vertex="1"><mxGeometry x="-1520.5" y="540" width="1360.5" height="390" as="geometry"/></mxCell><mxCell id="R9rB7OafcmL0Vme7xIAX-4" value="Openshift" style="text;strokeColor=none;fillColor=none;html=1;fontSize=15;fontStyle=1;verticalAlign=middle;align=center;" parent="1" vertex="1"><mxGeometry x="-1550" y="20" width="92.65" height="40" as="geometry"/></mxCell><mxCell id="R9rB7OafcmL0Vme7xIAX-5" value="" style="aspect=fixed;html=1;points=[];align=center;image;fontSize=12;image=img/lib/mscae/OpenShift.svg;" parent="1" vertex="1"><mxGeometry x="-1589.35" y="21" width="42.93" height="39.5" as="geometry"/></mxCell><mxCell id="R9rB7OafcmL0Vme7xIAX-6" value="&lt;h2 style=&quot;font-size: 14px;&quot;&gt;&amp;nbsp;Sbercloud&lt;/h2&gt;" style="text;html=1;strokeColor=none;fillColor=none;align=center;verticalAlign=middle;whiteSpace=wrap;rounded=0;fontColor=#26323D;fontSize=14;" parent="1" vertex="1"><mxGeometry x="-1474.3799999999999" y="560" width="90" height="20" as="geometry"/></mxCell><mxCell id="R9rB7OafcmL0Vme7xIAX-7" value="S3 вх/вых" style="shape=cylinder3;whiteSpace=wrap;html=1;boundedLbl=1;backgroundOutline=1;size=15;" parent="1" vertex="1"><mxGeometry x="-410" y="759.44" width="80" height="80" as="geometry"/></mxCell><mxCell id="R9rB7OafcmL0Vme7xIAX-8" value="" style="endArrow=classic;html=1;exitX=0.5;exitY=0.5;exitDx=0;exitDy=0;entryX=0;entryY=0.5;entryDx=0;entryDy=0;exitPerimeter=0;" parent="1" source="R9rB7OafcmL0Vme7xIAX-22" target="R9rB7OafcmL0Vme7xIAX-9" edge="1"><mxGeometry width="50" height="50" relative="1" as="geometry"><mxPoint x="-1760" y="258.75" as="sourcePoint"/><mxPoint x="-1380" y="127.5" as="targetPoint"/></mxGeometry></mxCell><mxCell id="R9rB7OafcmL0Vme7xIAX-9" value="Ingress Gw" style="rounded=1;whiteSpace=wrap;html=1;strokeWidth=2;align=center;verticalAlign=bottom;strokeColor=#36393d;fillColor=#eeeeee;fontSize=11;" parent="1" vertex="1"><mxGeometry x="-1679.067469879518" y="228.5" width="112.65" height="62.5" as="geometry"/></mxCell><mxCell id="R9rB7OafcmL0Vme7xIAX-10" value="Istio Envoy" style="rounded=1;whiteSpace=wrap;html=1;strokeWidth=2;align=center;fillColor=#647687;strokeColor=#314354;fontColor=#ffffff;fontSize=11;" parent="1" vertex="1"><mxGeometry x="-1665.75421686747" y="243.75" width="86.02409638554218" height="30" as="geometry"/></mxCell><mxCell id="R9rB7OafcmL0Vme7xIAX-11" value="ЛК Бекенд" style="rounded=1;whiteSpace=wrap;html=1;" parent="1" vertex="1"><mxGeometry x="-1350" y="230" width="120" height="60" as="geometry"/></mxCell><mxCell id="R9rB7OafcmL0Vme7xIAX-12" value="S3" style="shape=cylinder3;whiteSpace=wrap;html=1;boundedLbl=1;backgroundOutline=1;size=15;" parent="1" vertex="1"><mxGeometry x="-1400" y="646.16" width="80" height="80" as="geometry"/></mxCell><mxCell id="R9rB7OafcmL0Vme7xIAX-13" value="" style="endArrow=classic;html=1;entryX=0.5;entryY=0;entryDx=0;entryDy=0;entryPerimeter=0;exitX=0.25;exitY=1;exitDx=0;exitDy=0;edgeStyle=orthogonalEdgeStyle;rounded=0;" parent="1" source="R9rB7OafcmL0Vme7xIAX-29" target="R9rB7OafcmL0Vme7xIAX-12" edge="1"><mxGeometry width="50" height="50" relative="1" as="geometry"><mxPoint x="-1310" y="451" as="sourcePoint"/><mxPoint x="-1160" y="300" as="targetPoint"/><Array as="points"><mxPoint x="-1320" y="520"/><mxPoint x="-1360" y="520"/></Array></mxGeometry></mxCell><mxCell id="R9rB7OafcmL0Vme7xIAX-14" value="" style="endArrow=classic;html=1;exitX=1;exitY=0.5;exitDx=0;exitDy=0;entryX=0;entryY=0.5;entryDx=0;entryDy=0;" parent="1" source="R9rB7OafcmL0Vme7xIAX-9" target="R9rB7OafcmL0Vme7xIAX-21" edge="1"><mxGeometry width="50" height="50" relative="1" as="geometry"><mxPoint x="-1210" y="350" as="sourcePoint"/><mxPoint x="-1160" y="300" as="targetPoint"/></mxGeometry></mxCell><mxCell id="R9rB7OafcmL0Vme7xIAX-15" value="" style="endArrow=classic;html=1;exitX=1;exitY=0.25;exitDx=0;exitDy=0;entryX=0.75;entryY=0;entryDx=0;entryDy=0;edgeStyle=orthogonalEdgeStyle;rounded=0;" parent="1" source="R9rB7OafcmL0Vme7xIAX-11" target="R9rB7OafcmL0Vme7xIAX-26" edge="1"><mxGeometry width="50" height="50" relative="1" as="geometry"><mxPoint x="-1210" y="350" as="sourcePoint"/><mxPoint x="-1060" y="380" as="targetPoint"/><Array as="points"><mxPoint x="-1180" y="245"/><mxPoint x="-1180" y="90"/><mxPoint x="-910" y="90"/></Array></mxGeometry></mxCell><mxCell id="R9rB7OafcmL0Vme7xIAX-16" value="Postgres&lt;br&gt;Персона, параметры дисп. набл., статус прохождения" style="shape=cylinder3;whiteSpace=wrap;html=1;boundedLbl=1;backgroundOutline=1;size=15;" parent="1" vertex="1"><mxGeometry x="-1048" y="600" width="80" height="80" as="geometry"/></mxCell><mxCell id="R9rB7OafcmL0Vme7xIAX-17" value="" style="endArrow=classic;html=1;exitX=0.75;exitY=1;exitDx=0;exitDy=0;entryX=0.5;entryY=0;entryDx=0;entryDy=0;entryPerimeter=0;edgeStyle=orthogonalEdgeStyle;rounded=0;" parent="1" source="R9rB7OafcmL0Vme7xIAX-27" target="R9rB7OafcmL0Vme7xIAX-16" edge="1"><mxGeometry width="50" height="50" relative="1" as="geometry"><mxPoint x="-1090" y="480" as="sourcePoint"/><mxPoint x="-1040" y="430" as="targetPoint"/></mxGeometry></mxCell><mxCell id="R9rB7OafcmL0Vme7xIAX-18" value="Postgres&lt;br&gt;Персона, параметры дисп., статус прохождения" style="shape=cylinder3;whiteSpace=wrap;html=1;boundedLbl=1;backgroundOutline=1;size=15;" parent="1" vertex="1"><mxGeometry x="-850" y="555" width="80" height="80" as="geometry"/></mxCell><mxCell id="R9rB7OafcmL0Vme7xIAX-19" value="" style="endArrow=classic;html=1;edgeStyle=orthogonalEdgeStyle;rounded=0;exitX=0.75;exitY=1;exitDx=0;exitDy=0;" parent="1" source="R9rB7OafcmL0Vme7xIAX-26" target="R9rB7OafcmL0Vme7xIAX-18" edge="1"><mxGeometry width="50" height="50" relative="1" as="geometry"><mxPoint x="-820" y="314" as="sourcePoint"/><mxPoint x="-1060" y="440" as="targetPoint"/><Array as="points"><mxPoint x="-910" y="380"/><mxPoint x="-810" y="380"/></Array></mxGeometry></mxCell><mxCell id="R9rB7OafcmL0Vme7xIAX-20" value="" style="shape=image;aspect=fixed;image=data:image/png,iVBORw0KGgoAAAANSUhEUgAAAOUAAADiCAYAAACxzACuAAAACXBIWXMAAA7DAAAOwwHHb6hkAAAAGXRFWHRTb2Z0d2FyZQB3d3cuaW5rc2NhcGUub3Jnm+48GgAAIABJREFUeJztnXtglNWZ/7/PeScXAsSKXL2hFbUiK2qYTEIheZMhM4lAEdfptm5b18u2bm3dtTeta3+l/W2127q13XVr3VZX7UXduFqLmExCkgkoSWZIvVt3KyriHQTJDZLMe579IwQJBDLXc9538n7+ISQz7/NNZr5z3nPOc56H4GILFtTVFc/uG14e9xiLwfJ0YuNUJjmHGceToKlgFDCQR4CHwQIACERjLsIAE/OBn1kExJkwBGAfmPoY6AFhB0m5nSBeBuG5Kdi/NRKJ7Ff/G7scDZr4IS6Z5ILq6vkeLlxDMr4coIUEzGVCMRgeba8GY4gJu0H8Bkl6mSA3flDkeeyVhoYeTYomNa4ps0jJ6tUzjf7Bz7LklWCxmAgzAXh060oc2kfgt5jwNIjqo61ljwLr4rpV5TquKTNIeXlohizc+yXJYi2BFwKYqltThmFm7BKgp6XBD8Zay3/tmjTzuKZME68ZrCWir5LkMibM0K1HKQQJYAeBw/nC+tnmlpaXdEvKBVxTpsCSquAaYrqemL0gFOnWYwsYIFAPEVqYjB90tW3o1i3JqbimTBBfTV0Aw/JmZpSBkKdbj60ZMWgvC27wFIqbtjQ0bNMtyUm4pjwGF1RXz8/jvB+DcRFyb36oEHqLpfzPqWLoB+72y8S4phwHn1nzOWZxEwjn6NaSSzCTFIRoPC7/ofvJpi7deuyKa8oDmKZZ2E/5PyHQF8DuqJhtmPkNafCt3a3Nv9CtxW5MelP6/f45/VbenRK8Go7aQ8wNmDFAoLui7Y3fACB167EDk9aU3kDgFAzSbwhYDpq8fwf7wPuZ6O7TZhZ/rb6+fki3Gp1MujfjeYHA7IIhuhfg2iNyR130wxgiwfd2tS29drImJkyaN+W5odC0qTv3/gZEq8EQuvW4TABjAAI/iLaFb9EtRTWTwpSlZt0PGfJrBHd/0XEw7RFsXN25acMjuqWoIqdNWVZdt1pKeQ+Ambq1uKQBAyz4VckFK7sj61/WLSfb5KQpy1etOsnqj2+A5MW5+RtOUhjM4Idi7Us/n8vzzZx7y3orAv9fCLqR3e2NnIWYei3Bn9/aFn5Mt5ZskDOmLF+x4oJ43HiCgLm6tbiogYBI36zi1S/W1/fp1pJJcsKUXjP4U2Jc5+43TkoGGXx5LNL0kG4hmcLRb2JvIHAKDVLYzVF1YVD7abOmB3Ih8cCxpiytDFwPEj8G2NCtxcUeMPhDyyPr/rhxY6duLengwDf0Oo+3srCZCNcAbhKAy0cQqJAkXXXS/AXi7e3bIrr1pIqjRspS/9qzYA08BXff0WVC+Fmr94Ol3d3dA7qVJItjRhpfVeBKWAMvwTWkS0LQYmParDeXmuYi3UqSxRGm9Jm1v2Cmu+HI220XbRAKrbwpJ+qWkSy2vn0NhUL5r+/au5mYSnVrUQqDiTDIoF4w9jD4XSLawczbGOgnYewXPLwbAAyL9wwXUh8ACHgKeJDnSeI5BsnZIDGDmY8n0McAzGXQHAJPZ52FnxXB4OenYqgiEol8qFtLstj2pfH7/XN64p7niTBLt5asQugnxg7J/AxArcWe+B9aWlrey2bI0RYJwyTKSGARmBaC6BSAp2QzrgoYzATjR9FIw426taSKLU253O9fOCg90VwryzFSo0ZuB6HZAj0xjQfDdiokVV4emjFc9GGILKwliBKAT4CDzpwSU89wXjzo9C0R2/3BvTU1lRgWzblyzIoIu8HUwQL3RVsb/xsOKnlhmmbhPi68UhJ/jkDn23YkZYCBLVNp0G+nD7lUsZUpl1TWfpaA3xCxIxagxoXBLPg1SPqNLM7/t+7163fplpQpSpYFfIYH3waoGsB03XoAAATJJG6ItTbcpltKprCNKb3VwStI4m7YSFMyMONdInFfEfb90ImLC8ly4YoVZXlx4/sSMDXe1ewqMOKVudYuwRYGWOKv+ZKIizsdmFAeJ6ZWOWzdENvS/IxuMZoQpdWBa0niemY6XdkrSPREtK1xNRw0HUgU7SbwVdZ+mUne4bQFBQbuLqL9N+XCHCZTLPf7F+63PLcREECW9pQJiFuG/MrWlua7snF9O6DVCCXVNdcYUtypU0PCMEDgt4Wgb3a0hX+nW46dWVBXVzxjQP4ChBAye9j8Tc7npbGmph0ZvKbt0GZKrxn4KwI9oFNDQjDA4Dck4e+7I02/1y3HSZimWbiP8n/GjCsASmPeyQDEb6ORxs9lTJyN0WKI8qpavyW5CWTvND8i7BbAV92RMT1KSkqKPMedcBczXZZ0eU/GEHnEX3e1NDycJXm2Q7kpS5YFfB4PPWnrGjrM+9nDN8damv9Ft5Rcwu/3z+mzPPUMLE/wKf9jTc9flkvbSomg1JTLl18yb9AY2GbbTWiAGWgcmFX86Vyr+2InSpYFfCIPvyOmj4/7AAazwM9jbeGvKJZmC5SZ0jTNwgEU7IBNj14x8xt5NLRySyTygm4tkwVvZfB7RPhHHLpSS+i3hGd1d8uGNn3K9KJsTjfA+THY0ZAMSaDbYu1N811DqiXWHv6uMS1vPsDPjnyHn+2fWTx3MhsSUDRSlpqB3wO0RkWsZCDwa0MiXvV0a+t23VomO96lNedP4gSMMWTdlD4z+A8M3J7tOEkxkp/6i1hb05d1S3FxOZys3r56K2u9ksleK5iEfmY2XUO6JEtJSUmRijhZ25ZYUFdXTPtkK+xUcoTxp91TRNkrDQ09uqW4OIfyVatOivcObSGI/QDOzna8rNW8WXDKgi4Ap2br+slCjHui7eHg7ldeGdStxcU5lFbUXs7D8RYimgHCCSfNP+OEt7Zva8hmzKyMYt7Kmu+AeXE2rp00DIbg67raw1fpluLiKESZWfsIiO89NEWQib7iq6kLZDNwxhd6lprmomEufNYOB5UZGBZ5YlVXc0OTbi0uzqHUv/YsxAc2gzB7/EdQf/+s6XOzlWCSYeOs81hU0G4HQwLozZsiznEN6ZIMXn/N12Hte+nohgQAnjp1Z8/GbGnI6JyytKrgQTCWZPKaKbJrfz5/Yms4/KZuIS7OwDTNwjmnnd0GSVcndFCCcfKJHz97z9uv/7kr01oydvvqrQhUQFCEdB/FYuzon1280M1ddUmUkmUBn5FHTWAUJ/VExpAxVDyvo6N+dyb1ZOo2U5CgR7QbEvRmEQ2e5RrSJVF8VYFbDIM6kjYkABDyZUHvhkxryoiJSiuD94Pw+UxcK3XozSLsP9Mtz+GSCKZpfmyACtrBOC/dazH4M5lsWpu2KZf7/QsHLc8LmbhWqjDjXdm36wwndlhyUY/XDNYS6JGMHSFkDBTR4AmZGhDSvn0dtPL+AJ23rYS9nqHic11DuiRCqVnzSwBPZPRML6FoHwozVhkhLTPpLnxFwP4Cmb9w06b1r+nS4OIMli+/ZN6Q0fcUg07PxvUZYAzJCzNx0iXlkdI0zUJDGj9JV0DqkAXyLHMN6TIR5VXBywaN/u3ZMiQAEECULx7MxLVSNuUAF9yjs6wHC/7brrYN3briuzgCUWbWPmIxfgsVVdwZZ/vMmrQr7qV0+3peIDC7cJjeSboyWYZggZ/GWsPX64jt4gx8NTVnclxsBmOOyrjE2N3VHj4hnWukZKopQ/SgLkMSqNM1pMux8FZddB0Piz+pNiQAMGFGWXXwn9K5RtIj5cgWiPGCpjYDe4swONfdi3QZj1AolP/Gzp4wA6ZWIYyh+bOLp9fX1w+l8vSkR7v9Mu/XWgzJkDwkTdeQLuPhq1pZsn3n3ve0GxIACPmv7+pJeRE0KVMuNc1FJPnCVIOlBdH33cJKLuNRVhG8QUorCtDHdGv5CLoaWJdSZY+kTonMPe0TjxPhpFQCpQODn49Fwp9RHdfF3pSUlBSdfPbiZgBXk83aKBLgOWn+W9Pf2v5KONnnJjxSlpirP0Fgb7IB0oYxJKcXVCuP62JrfJWBGmPazJ0ErrSXHQ9F/h1SmCIm/AQPhn+V7MXThgHLkH8/2XpJuBwbb1Xg50wIg6CkulzKEBX6zMAPkn1aQve8JatXz+S+oXJw8rrSg1/obm3+heqoLvbkvEBg9pQheooZC3RrSQgGWBylX8oxSGik9PQP3q5hX9IypufXKo7pYlNKq2tDhYO0g+EQQxIke+Q3om3hv0r2qYmMlEKyCJHiYZKBOzoef/wtpUFdbImvKnAXW/xF+84dx0KE3YhTVXRz83OpPH9CU5ZWBW8Ec0EqF08Zwt5YW/hrSmO62I6ldXVnWPutTcx0olMMKcCPd7Y1rQEgU7/GBBD42lQvnhIMkJRfRRq/lIvz8VYHr4jvky8z04m6tSRIXBryms5I02qk+d495ufPUtNcFEfB8+kESIHXo5Fw1o7YuNgeUWbWPizBa3ULSRRifruACzJ2jPCYt6/DKPiR6rsGKaXakdnFNhwoLdMuwfbrY3oUBOjRzvbwJZm95jF+RsCKTAabCAK/tnVT8xMqY7rYgyWVwW8Nxj3Pw46NhceBiQaF9PxlZ6Qxo4YEjjFSllTXfBFSwcHQQ5Agtz3dJMM0zcJ+FDYS2zkzZyxM/Kqclu+LZSmp5aimNNi4Bkq3QWhbLNLYqDCgi2bKq1cu3WdZjUQ83RGGZDDAd8QiTddlM8xRbl/XecBYlM3Ah8Pgr6iM56IXn1n747gcfpKJp+vWkhCEfsvj8Ufbs2tI4Cgjpdf/1N/DElnrXXkEjNdj7WF3lJwElKxePdPoHXqSwWfb7GDH+DBARJ3xnp1+VWVMxzUlxcWVKv9eBPqxumguuigxAxeL3qEHAahNRkkRZpJCyJu72sK3qow7nikFKPstpEdhosFopNFNOs9xfFWBu1iSY1LlwLTHkxf3d2zc+LTq0EeY0mfWXMZZbLs+DhvgZu/kLOWrVp0U7x3awkynOsWQDGqPtZetANbFdcQ/YqFHwrhaXXhGXiF9S108F5WUVtRebvUNvUZEp+rWkggExC0h/y4WaTR1GRIYx5QElU1fxbYtDQ3b1MVLHNM0bVTvxWms83jN4BMQfC9ASve6U4feGhLDC+xwfnfM7euBXu9TVd1mSMOy7QLPPsp/sbQysGX+7OP+OtVSgZORpaa5KE4dETDSKkisDgaYHoi2N16mW8koY0dKue9qhff98a0tzXcpi5Y0VAiiS7fv6tm9pLL2s7rVOIGyiuANw1z4rFMMycCgkHl/GW0P28aQwBELPRxUFZiJUjoAqhzGVAH+XWll8DsFcqp/8+ZH3tEtyW6MpspJ5koi5TVjUoKJXx3MQ/lzTRve163lcMaOlKxuKwQQ96mLlSYEgHDOoDGww2fW3KZbjp24cMWKsn1c+J69q8odCjMT3xlrazrjuaYm2xkSOMSUpf61Z0HVpi6Dp/LAfyiJlVHYYIiv+6oCb3kra9WX27QZPrPmNk/c2MLExbq1JASh3zLy/LG2JlsffDh4+8rxgb9W1YyACNuc3H6AmU4kcNRrBhtOm1V88WRbCDJN82MDyI8waLFuLYnDz/bPPG7Zi/X1fbqVTMTBkVIQqtSF5Yy1otYGAQTUbd/Z+6G3OniFbjmqWFJRc9EACt+GUwxJkAB9LxppOt8JhgQOMSUD56gKui8ft6uKlX14Cknc4zVr/+j3+5W3XlNJaWXwPkFig85mwclBewzDWhKNNK7TrSQZxMF/1S1j77XrBDsdCHxBr5X3VmllrcaW89mhfNWqk0org6+B8AVnLOaMpMrNnzV9ro7c1XQRAFBevbIM6s7RvKwojgbYAPH1pWbw7VxZCCqtqL3c6h1+DYTTdGtJEIuYro1FGk0nzPW9gcApOGwXRACAJa0adTJERF0sbcwjkl1lZu0joVAoX7eYFBFlZmA9iO8FqS0LkyoMvOuZIs7uam/8uW4tieCtDl5Bg7TtwhUrSg/9vgcACPCq2vIli3+nKJRmiCR47YGFoGtjreH/1K0oUUrM1Z8weKhdArOdcrsqQI92RhovhTNOHI2U0bR4LQjIs0QVgM6DPwQABj6hSEy8a3OjMzJ5MgZPIQv3lFYGXypftUp5b89kKa0MXG9g+AUQZuvWkhCMIcl02YGqcrY3ZKl/7VmllcF3JEYMCQASYswhkJF7WeK5ShQRJmdvkAMZQVbf8HafGVB6ij1RTNMs9Jm1TwL0E4BVnqdNA9o23RM/dWt74wO6lSRCaWXgelj7Xjr8A48kjxkUR5IHJIpU3KYwqDv7UWyNwaAbvWbwb2ScL+5+sqlLtyBgJFVuwDLCYC52xu0qM0H8R1ek8RrdShIhFArlv7GzZyMDy8etEEk079D/iuXLL5mnauXVsDiqIo7dIWCuYVCn1ww+YZpmoU4tvqrALZ5hYwsYjkiVY8YAMYJOMaS3sta7fWfP+yOGPBpjK/qJofx9n8y2sFEscIeqWLbnQEbQAAp3+6oCV6oOv6CurrjUDDzDTN9WuB2WJvzsniIxr6u9qVm3kkQoqw7+E4G7ABx3zAcyPMC6gymvHjlsLSah5jWZKobckfIIeAoz3V1qBq4rsKbVqTga5jWDtbSPHwHIGZk5DGbmH8Q2NX1Ht5REWFBXV3z8PqtdSpyf0McdAb7lnQu7NuM5ABBk0FlZ1jjKsJOT0LMPLR40+neUmnU/zGaUJWbtrwhocE6qHPYyyOcUQ/oqAzXHD8h3CHR+Ms9jwgWjXwtmUpWvuVdRHCdjAPIGb2XwnQtXrCjL5IWXL79kns8MvCrAV2XyutlkJFWueHasvTGmW0sieKsCP2dCmAhFST9Z0MHccw8xz1IyoyCanNshKUCEuZ5ho8Nr1rbL3p0XpVuZu7wqeNkg99/rlCJWo0WQo23hW53gxvLy0AyrYG8rOPWTMySsg3vYAkRqVt1YZqSh5qSBAAJXGtNP2FVaUXt5ilcRpWbgUYvxW8AZqXIA3iPPlHO62ppsuZ97OD5/3aXxwt60j7JJSQcPhHgAOW2Chs4ZQcJ4N+tBchKaAsH3llbVXm9M9azsePzxhO44Sv1rz4I1sAmAM46TMQDix6KRJkdk5gCAtzLwAFvyM5lwjwAd/9HXDCX7ZCStrPTymzQwL7b6h9/wVQUmrADorbroOlgDL8EphgTiIPxtNNJ0MRxgyPJVq07yVga2E9FnMnVNZj64beJhIkNN5oBnp4owOQ1DMOiLpWZwjSE8l3S0bthy6I9DoVD+6zt7m4itSl0SU+D1AmvqUqdUCSw1g1dbfcN3EtFRe7umBOFgAoGHGIaSFDspXVNmjjmWFX/Ka9a2D8yavurF+vq+A5kjzTTRRrVtYAiIR7PRnjxLjJzs4I8SyTPMwTm/ByomlADY484pM8qBhaCpO3vfL60KPg7Jl0LRa5k+tE9KeWl0U+MTupUkwlLTXBRHQUSCT8jaX5g+KmInlOW9It/dEskKPAWMkGNS5ZhfKML+E7duanaEIcurgpfFueBZIMvlcvijkzmekVWvrIYDAPTP8Lyd/SgudoXBTDB+FG1vuFG3lmSIQ3yKSB7RCCvz0CGmVEThq6/aflXNJTsQU088zwr+cWNT58SPnqzQQeMrM+XwCSdMA6CkZ7yLneBn4327lv4xzawkXZC0DCipUs4H88KVmXKaYUwHkHOlJV3Gh5kkSH43Fmn6J91a0oFJFNB4B5Mzz8EmtULV8sDw3vj0iR9lHyTwAIOd0ULKfuwq9Az/hdMNOYKlpBohEVujXwuwmo8BkW9MUxEnU8Tawl/Jw9B5YLyuW4uTINCGaCQ8Z3NLy0u6tWQCAaHElCzpkJFSqDGlBDvKlACwJRJ5IdoePp2IbwJ4WLceW8MYZoEruyKNq+CAVLlEkSAl71sWfIgp+aNhM5sY0pP8GTOb0NXWdKsxeNxcBrXr1mJHiPntQs4/20m1bROFoKbNH8mPFkE9YFgqKmAzWWrKWGaJjo763QDMJVXBNYak+x3TkzGbjNxj/bqrvekLmpVkEZo6bgW6DMOgntGvBQQNZj0iABBOVxIny2xtCz/W1d54PBi/nswLQQTslwIXR9vDOWxIgJiV3OEJoj0HvwaTkp59kuXJKuIoQkbbw1/Im2KcCcafdItRDRO/ui+f529tCz+mW0u2YUDNnBI4eLRRgFlN7RwS8yZ+kLPY0tCwLdoeXigkbpwkC0EMpttjbU1n5GI7w3EhVlKxgYCDp6jEoQ7NctBcGinH0Lkp/M/G4HFzCfSUmrVsLfSxZDPa3vg13UJUMdL7RUk6D+LC2jb6tSABNUeqiGcqiaOJjo763V2RxmVS4GIQeiZ+hqPosnp3zYltatqkW4hKuId9qmLlI/9g4yshCH9WEpXV3JvrZmtb+LFoW/h4MO53+kLQSKoc/jEaCZelW1HPibCwytUEAob2vvvM6H8Fk3jmWI/PYGDD7/c7pWZMushoe/jyQsNaBDgzI4gIu4XEBdG28C26tWiDcZ6iSPLQDz0hDUtN5ycCethzkZJYNmFzS8tL0Uj4dCFxIwOOWQgipqautvI5k6+X6GEQf1xJHIF9Y/4ba2raoeo2S/CxOg/lLp2bwv88FYOz7Z4RRECcmK7tam8MAuviEz8jt2Gwmia/EmPqVwkAIKZ94z8607HTK1jrZCKRyIexSKMphPgUyH4tHIj57QKZf1ZXe+PPdWuxA+eGQtNUNUAiGjvF8QAAC36XmLI+VBN4QbZj2J3O1ob1AGb4qgJ3MuhqMBSUmjg2AvRoZ3vYKVXllFC8q+dTSpLCATDz84f+f+QNwfQ/iqIXl5SUODYxPYPIrramLxWI+F8QWFs7ByYaJEOEHFTmURmWRK2qWIagMWVSRm5fQYr6RhI802e4b4ADbG5peakr0vRxybhB+UIQ0/8O5slTu1oaHlYa1ykQLVUSh4H+PN546LcOmBIbx39G5pFkrFUVyylsbQ//aCoGZxPwZNYzghgMiTui7Y1nT5pUuZSQp6qIwoIGD38dBAB0RRq3QMX5FABgVvMJ5DAikciHXZHwcmFkcyGI+i2Pxx/dFP5qdq6fG5SvWHGBqraBxHxEu4bRRQYJYLcSEcCcUCikpMSCE+lsbVgfbQvPIOL/AGXyBD8/2z9r+tzulg1tmbtmbiItcY26aHxE8s7BlT+CsiNI9MauvZ9TFMupHFwIYuJX07oSQQK0LhppOv/F+nolx/ScDksKKItFniM+JA+aUjJaVQkB098oi+VgNre0vBRrazqDhfgmUloIoj2GYS2JRhq/l3FxOcs6DwSUzCcBoFgMPnT49w6astATP+KH2YJBS1TFygVirQ23FY0sBG1OdObPTK3zZ02f27Fx49PZVZdbeCs7rlC2d0zob2lpee/wbx8Mvrml5SUwhpSIAU/xVgQq1MTKDQ4sBFUQOEB0zPm/BcHXxdob/fX19Ypez9xBEH1RVSxiGnfKOOYTgYnVJBEAgCG+rixWDtHV3tTc1RaeRYT/PLxmLwPvUp48J9ra9G+69DkdZlaXCkqyebxvjzElkWhUowYghl9VrBxEdrWFr7Qof+HBhSDmh2OR8Eldzc1qzsfmIOVVwctUVHYEMLIB6eFxS3KOMaWnkO5SV86Cp/pq6pStcuUi3ZH1L8fams4olPkfj7Y3hZBDRZB1YAE3KAtG1H+0D9AxptzS0LANRP1qVAFymG9SFSuX2bRpvbb82VyhvDw0A4y/UBWPwH882s+OWGUicCy7csbEWuYmErjYAVm491YobE/PwP1H+9kRphSEX2ZXzhiM19/v+UeF8VxcxkeKzyiLxeD5s4oTN2VHW/hBAKqOkoEEvqQqlovLeCypCq5R2YaCBb92rO2q8TZJJZjVVf1mzPHW1FQqi+fichjE9F2V8QyiB47183EzF9gw7suOnPGhuPEzlfFcXEbx+/1ziPl8ZQEZXCgHbzvWQ8Y1ZazV91MovIWF5MW+mpozlcVzcTlAjyXuA6lb4CHi1yORyIfHesxRcvzWxZno2WyIGhcC5LBwCza5KOW8QGA2kahRHHbCHPOjJt6ShX/NrJZjQwz/SO8GFxc1TBkS9ygtXMbgD6YYt070sKMKim5qvE9dgjoAAsX74krnsi6Tl5LVq2dKRp3KmEz87CsNDRP2mTnmpwQRjZswmz1ktTcQOEVtTJfJiNE7+CsiVlrek4RIqAXEMUXFkfeNzMhJDAKRGBL/pTKmy+SjZPXqmWBarTQoYyDa2lifyEOPacruyPqXmfmNzKhKDAaXlVevdItruWQNT+/QIyDFRbCJHk30oRMKE0S3p6cmeSwr/lvVMV0mB+VVtX6G8p42vD9fJtxsd0JTdkXC/wpgMC1JyUI4zVcRvFZpTJdJgcX8oOqYBOpOpsZuIkO4JIb6kUvgNrfFgUsmKTXrfghAeUdxKWVSVTYSuq/+oEhcn9kapBPDQKFRPCuhibGLy0SUrF49E0jOHBninWTb0idkylcaGnpIkrLWBgdhvqi8qtYtG+KSNqJ36A840GVOJUR8c7LPSXgFqoDzrmFVrQ0OwQI/AqxT/sd0yR18VYErCShXHZcIu7vamu5J9nkJm/JAyYnOCR+YaRjF3qrO/1Ye1yUn8Pv9c1jSnTpiSxgpFcFOaq9G5MnLDy9rqAJi+akSM3Cx6rguzqdHGltAUF5yhph6Ym1PpJQ/npQpu5qb/0yEp1IJlB4EAXpwZLLu4pIYpZW1P1HRoXw8pMf6fqrPTTqrYUgMfw4a5pYEFBg9Qxo+EFyciLciUAHif9AUflespflfUn1y0qZ8urV1u8oms2MgnFVq1qgs7OXiQM4NhaaRoMehsDrdoRDk9ek8P6X8PzFY/BkC4ukETh1xdWlF7eV6Yrs4gWk7e54GMF1LcMaOrkjzb9K5REqm7Oio3y2J9Y1YBt8z0m3XxWUsXjPYzMACXfEJfFX610gdUWoGewBMTVdEivRZ0/NP716/fpem+C42w1sdvJ0kdM0jQcCTXZFw2snu6RxfkdLQkrY0yjTRO/S8W2HdBQBKzeDVJLUt7ACAFZ+evzYTF0rrTNnWlua7AKhrn3eKglXZAAAJnUlEQVQYBMzd/v7ebl3xXeyBz6xdxkx3aVrXAQCwwL9l6q4t7YOenilipepk9TEQLfKZwc3a4rtoxVe1soTBrapLexzGrlhrOK0V10NJ+xfZ0tCwjcC/yoSYVGFgma+yNqxTg4t6fMtrz5OwngIU9ZQcDwY4T16ayUtmarwXpZW1u0B8fIaulyL8WDTS5KbjTQJ8VStLmOMd0GlIAAL0aGek8ZLMXjMzSMMwVunIix0LrXFHzNzHLoYE0HfKrOkZ79aVsfvwjtYNW0jg3kxdL1WYOODOMXMX2xiSASnlXx2re1aqZHy5qtQMvgtgTqavmzSM/7X6dl3Q3d09oFuKS2ZYUhVcIxgPQ8Nh5cNhEg/F2hqy0tMy4ytWPCRrta7GjkI4y5g2682KitWn65bikj6lVcGbBONR2MGQjJ2xtobLsnX9jJsytqX5GWb+ru7ZJQCA+Pj9NPRyiX9llW4pLqlTWhV8CIwfQOdG5AGYSebRYDWQvYHHyMZF335926aTTz+zFsDJ2bh+UhAMAfn5k+efueut7a/EdMtxSZxQKJQ/bc6p3WDYo04TAwbj2x3tLQkXVk6FrG24TsH+KmKasJmJEhiCif/dVxVMul6Kix4uqK6ev31n75tgXqxbyyhEaOvcFP7nrMfJ5sVLlgV8whBbNGdbjIGZ34gb8YqnW1u369biMj6+iuC1EPgp22D+eAi7opHyecC6rB9ZzMrt6yjvvLHtrVPmn/EBgIv0zwZGIKLjDDa+cvL8Mz9wb2fthWmahXNOO7uNCdcgi3dxKRCHUVTy1mu/2KkimBKr+CqDdzPhShWxkoFAnfHenX5320Q/PrN2GRgbmLhYt5axMJNhfLqrpeFhVRGVjV+llcEXQVioKl6iEFNv3GOs6W7Z0KZby2RlpMQLXQWQTe6nDoW+F400rlMaUVWgkpKSImP6zDcAnKAqZjIwY5NnqHhtR0f9bt1aJgveikAFCfEwwLN0axkPJvpDrK1xjeq4Sj+Zli+/ZN6g0bcNoCkq4yZBnCX/MLap6Tu6heQy54ZC04p2fvgwsQjaZa3hcBj8fCzSdJ6O2Eon05s3P/KOhYILGRhWGTcJPCToZl9V8IMlFTUX6RaTiyypDH6raGfPLoJ9DQngndNmHbdEV3Atf5YlFTUXCUOsB9tqhe0IGOgQefLyrubmP+vW4nR8lTWfZxg/03+879gQY/cHReL0VxoatO2xa/usWlJZ+1lB/FudGhKDmSC62JhyebTl0f/VrcZplFWsvESK+B0A5unWMjHUb0zznN3x+ONvaVWhM7ivKnAlS/oVyO7GHDlgDuJYobCu2NzS8pJuPXbHV1nzeSbjFjCfbP9XFwB4X6EsOPdAIyutaP9z+SqC17LAHbp1JAd3W0beN91tlCMQpVXBG0ni60yYoVtM4tA+yrMW22Waot2UAFBaHfgqJH5mz32qo0OM3dLA/QMnFH/nxfr6Pt16dLG0ru6M4f38E5Jcq6PDVVow74dn6mI7TU1sYwJvdfAKsnC3E25lj4Agmakb4P8Xi4QbdctRQSgUyn99595vEegqgE+z0VspGfopT15glxFyFFv9JX3+uktlnB+yUwJ7shBTLwtslpb171s3NT+hW09mWefxVXZ+UQpcReDz7b56fkyY9kz3DJ/T0tLynm4ph2MrUwKA1wzWErAe9johkBqMIRb8jLDo/lPnFP8yG/Vcsk35qlUnyf6ha8G0VjKd5eQPzFEYeHcqBs+JRCIf6tYyHrYzJQAsNc1FcSroBGvrU5J5CBISb4L4jwBt2D1F/JfOvbCj4ff75/RAfE5YYiUTSsCwWYJ4mjBeKqLBkkgksl+3lKNhS1MCwHmBwOzCYXoObIMiXFmD+xh4hRibJXPjh1M9T6o0qjcQOEUMitVSUAVJeR6ITgPYrimQ6cEAE62PRRo/pVvKRNjWlMDIYsL2nXujANnm9LkCLIB7AdrJwHaSeJmAly2i3ZRvvS2HC9/LHyx8f6LEeW8gcIoYzpsteXgBQXxCAqcQ43QiPgXAbADTkOXztHaCwD/sijR9W7eORLC1KUdZYtb+SmSg719OwQATM4EsAMQYmesRExy5gp094gbh8o628O90C0kUx7x4B9Ly7kcuLAC5KIHBHxYa1iedloHlmJW0re2ND5BFJQDt0a3Fxf4QqPO0WcfNcZohAQeNlKOEQqH819/vbSDiat1aXGwIQQrCrZ2t4Zt1S0kVx5lyFF9V4MqRRqHu7azLKLSHyKjpatvg6EbCjjUlAPhqas6UQ7SRiE7VrcVFLwwZjkU+uUpFCchs42hTjuIza25jEtc7Ou3LJUV4P4H/tivS/BvdSjJFTpgSAJb7/QuH4kYzE52oW4uLAnikYnm8d9eqXCsRmjOmHMVXFbgFTN+0WXVtl4zCfULmXd65acMjupVkg5wzJQCUrF49U/QOP0zMlbn5G05SGCyIft8ZKft0Lswdj0ZOv2XLKlZewkb8l8xOOgXvMi6EFz2FYs2WhoZtuqVkm5w25ShLKoPfEsTfA6hQtxaX5CDCbsn85Vik6SHdWlQxKUwJjDSP6acp95KUIZC7Smt3mDEAQ3w31tpwm24tqpk0phzlwHzzHjBW5sKB3VyDgP0SuCsWKf9GLs8bj8WkM+Uo5wUCswuG6F4wBV1z2gHaB8Id0baymyarGUeZtKYcpbw8NMMq6P1XgD8NIE+3nskHf8gSd8Q2NX0XgNStxg5MelN+xDpPaVXnLQB/KedKYNgNBoj4NUF0s5POOarCNeU4lJiBiwXwfWJa5B4YzihxAjYLj/X1jo0bn9Ytxq64b7hj4Pf75/TGPT+CwBowjtOtx7EwdgjGv3duKv+XyT5fTATXlAniM2uXSWAdMS93XBVwDRBjNwOPe4rE9yfDhn8mcU2ZAqXVtSGS/GUG+XK2+ltK0B4Qb/Tw4Pe3RCIv6FbjVFxTpslIi3BcD4hP2rVNeNYgSDC9BsYfuEDeHmtq2qFbUi7gmjKDnBsKTZu2s+dqyQgJ0CImzq1VXAYz4T0D1CEFHoi2lj3qzhEzj2vKLHJuKDSt6P2ez0LQKmJcCMg5ADljL5QBCPRDYjuAreQR67tafL93TZh9XFMqZvnyS+bty+/9FMXJJGARiOaBUQzSlLjAAAiDAO0kYDtLfloSbeG+nY/l2uFhp+Ca0iacGwpNm/Zh31JrSJ5vEH0cwMkSOJGYjwdhGjEVgDgPgEeCD1Q2J9Chr+GBAs1gwQS2iGAxMEjE/SypD4Q9AvS2JLzCxH/Cfvl0bEvzc3AzaWzF/wGCoyymgRqJGQAAAABJRU5ErkJggg==;" parent="1" vertex="1"><mxGeometry x="-1510.7999999999997" y="555" width="29.38" height="29" as="geometry"/></mxCell><mxCell id="R9rB7OafcmL0Vme7xIAX-21" value="ЛК Front" style="rounded=1;whiteSpace=wrap;html=1;fillColor=#ffe6cc;strokeColor=#d79b00;" parent="1" vertex="1"><mxGeometry x="-1499.08" y="230" width="120" height="60" as="geometry"/></mxCell><mxCell id="R9rB7OafcmL0Vme7xIAX-22" value="Сотрудник ФОМС/ТФОМС" style="shape=umlActor;verticalLabelPosition=bottom;verticalAlign=top;html=1;outlineConnect=0;" parent="1" vertex="1"><mxGeometry x="-1810" y="229.5" width="30" height="60" as="geometry"/></mxCell><mxCell id="R9rB7OafcmL0Vme7xIAX-23" value="" style="endArrow=classic;html=1;exitX=1;exitY=0.5;exitDx=0;exitDy=0;entryX=0;entryY=0.5;entryDx=0;entryDy=0;" parent="1" source="R9rB7OafcmL0Vme7xIAX-21" target="R9rB7OafcmL0Vme7xIAX-11" edge="1"><mxGeometry width="50" height="50" relative="1" as="geometry"><mxPoint x="-1260" y="450" as="sourcePoint"/><mxPoint x="-1210" y="400" as="targetPoint"/></mxGeometry></mxCell><mxCell id="R9rB7OafcmL0Vme7xIAX-24" value="" style="endArrow=classic;html=1;entryX=0;entryY=0.75;entryDx=0;entryDy=0;exitX=1;exitY=0.75;exitDx=0;exitDy=0;edgeStyle=orthogonalEdgeStyle;" parent="1" source="R9rB7OafcmL0Vme7xIAX-58" target="R9rB7OafcmL0Vme7xIAX-59" edge="1"><mxGeometry width="50" height="50" relative="1" as="geometry"><mxPoint x="-282.05" y="858" as="sourcePoint"/><mxPoint x="-220.05" y="935" as="targetPoint"/></mxGeometry></mxCell><mxCell id="R9rB7OafcmL0Vme7xIAX-25" value="" style="endArrow=classic;html=1;exitX=1;exitY=0.75;exitDx=0;exitDy=0;entryX=0.25;entryY=1;entryDx=0;entryDy=0;rounded=0;edgeStyle=orthogonalEdgeStyle;" parent="1" source="R9rB7OafcmL0Vme7xIAX-59" target="R9rB7OafcmL0Vme7xIAX-55" edge="1"><mxGeometry width="50" height="50" relative="1" as="geometry"><mxPoint x="-260.05" y="875" as="sourcePoint"/><mxPoint x="-210.05" y="405.25" as="targetPoint"/></mxGeometry></mxCell><mxCell id="R9rB7OafcmL0Vme7xIAX-26" value="Диспансеризация" style="rounded=1;whiteSpace=wrap;html=1;" parent="1" vertex="1"><mxGeometry x="-1000" y="213.75" width="120" height="60" as="geometry"/></mxCell><mxCell id="R9rB7OafcmL0Vme7xIAX-27" value="Диспансерное наблюдение" style="rounded=1;whiteSpace=wrap;html=1;" parent="1" vertex="1"><mxGeometry x="-1130" y="380.1" width="120" height="60" as="geometry"/></mxCell><mxCell id="R9rB7OafcmL0Vme7xIAX-28" value="" style="endArrow=classic;html=1;exitX=1;exitY=0.75;exitDx=0;exitDy=0;edgeStyle=orthogonalEdgeStyle;rounded=0;entryX=0;entryY=0.5;entryDx=0;entryDy=0;" parent="1" source="R9rB7OafcmL0Vme7xIAX-11" target="R9rB7OafcmL0Vme7xIAX-27" edge="1"><mxGeometry width="50" height="50" relative="1" as="geometry"><mxPoint x="-1210" y="431.25" as="sourcePoint"/><mxPoint x="-1020" y="436" as="targetPoint"/></mxGeometry></mxCell><mxCell id="R9rB7OafcmL0Vme7xIAX-29" value="Сервис Входящих документов&lt;br&gt;&lt;br&gt;ФЛК?" style="rounded=1;whiteSpace=wrap;html=1;" parent="1" vertex="1"><mxGeometry x="-1350" y="360" width="120" height="60" as="geometry"/></mxCell><mxCell id="R9rB7OafcmL0Vme7xIAX-30" value="Postgres" style="shape=cylinder3;whiteSpace=wrap;html=1;boundedLbl=1;backgroundOutline=1;size=15;" parent="1" vertex="1"><mxGeometry x="-1300" y="646.16" width="80" height="80" as="geometry"/></mxCell><mxCell id="R9rB7OafcmL0Vme7xIAX-31" value="" style="endArrow=classic;html=1;exitX=0.75;exitY=1;exitDx=0;exitDy=0;entryX=0.5;entryY=0;entryDx=0;entryDy=0;entryPerimeter=0;edgeStyle=orthogonalEdgeStyle;rounded=0;" parent="1" source="R9rB7OafcmL0Vme7xIAX-29" target="R9rB7OafcmL0Vme7xIAX-30" edge="1"><mxGeometry width="50" height="50" relative="1" as="geometry"><mxPoint x="-1070" y="500" as="sourcePoint"/><mxPoint x="-1040" y="620" as="targetPoint"/></mxGeometry></mxCell><mxCell id="R9rB7OafcmL0Vme7xIAX-32" value="" style="endArrow=classic;html=1;exitX=0.5;exitY=1;exitDx=0;exitDy=0;entryX=0.5;entryY=0;entryDx=0;entryDy=0;" parent="1" source="R9rB7OafcmL0Vme7xIAX-11" target="R9rB7OafcmL0Vme7xIAX-29" edge="1"><mxGeometry width="50" height="50" relative="1" as="geometry"><mxPoint x="-1060" y="440" as="sourcePoint"/><mxPoint x="-1010" y="390" as="targetPoint"/></mxGeometry></mxCell><mxCell id="R9rB7OafcmL0Vme7xIAX-33" value="" style="rounded=1;whiteSpace=wrap;html=1;fontSize=15;align=left;verticalAlign=top;fillColor=#f5f5f5;strokeColor=#666666;fontColor=#333333;" parent="1" vertex="1"><mxGeometry x="-1240" y="742" width="782" height="96" as="geometry"/></mxCell><mxCell id="R9rB7OafcmL0Vme7xIAX-34" value="disp-raw-disp-observ" style="rounded=1;whiteSpace=wrap;html=1;" parent="1" vertex="1"><mxGeometry x="-1150" y="773.8399999999999" width="102" height="32.32" as="geometry"/></mxCell><mxCell id="R9rB7OafcmL0Vme7xIAX-35" value="&lt;font style=&quot;font-size: 13px&quot;&gt;Kafka&lt;/font&gt;" style="text;html=1;strokeColor=none;fillColor=none;align=center;verticalAlign=middle;whiteSpace=wrap;rounded=0;" parent="1" vertex="1"><mxGeometry x="-1209.77" y="759.44" width="40" height="20" as="geometry"/></mxCell><mxCell id="R9rB7OafcmL0Vme7xIAX-36" value="disp-epgu-in" style="rounded=1;whiteSpace=wrap;html=1;" parent="1" vertex="1"><mxGeometry x="-730" y="773.84" width="102" height="32.32" as="geometry"/></mxCell><mxCell id="R9rB7OafcmL0Vme7xIAX-37" value="disp-epgu-out" style="rounded=1;whiteSpace=wrap;html=1;" parent="1" vertex="1"><mxGeometry x="-585.85" y="773.84" width="102" height="32.32" as="geometry"/></mxCell><mxCell id="R9rB7OafcmL0Vme7xIAX-38" value="" style="endArrow=classic;html=1;strokeWidth=2;exitX=0.75;exitY=0;exitDx=0;exitDy=0;entryX=1;entryY=0.25;entryDx=0;entryDy=0;edgeStyle=orthogonalEdgeStyle;rounded=0;" parent="1" source="R9rB7OafcmL0Vme7xIAX-36" target="R9rB7OafcmL0Vme7xIAX-26" edge="1"><mxGeometry width="50" height="50" relative="1" as="geometry"><mxPoint x="-750" y="460" as="sourcePoint"/><mxPoint x="-800" y="510" as="targetPoint"/></mxGeometry></mxCell><mxCell id="R9rB7OafcmL0Vme7xIAX-39" value="обновляет статус" style="edgeLabel;html=1;align=center;verticalAlign=middle;resizable=0;points=[];" parent="R9rB7OafcmL0Vme7xIAX-38" vertex="1" connectable="0"><mxGeometry x="0.7681" y="-2" relative="1" as="geometry"><mxPoint as="offset"/></mxGeometry></mxCell><mxCell id="R9rB7OafcmL0Vme7xIAX-40" value="ЕРЗЛ" style="rounded=1;whiteSpace=wrap;html=1;" parent="1" vertex="1"><mxGeometry x="-1110" y="120.00000000000003" width="120" height="60" as="geometry"/></mxCell><mxCell id="R9rB7OafcmL0Vme7xIAX-41" value="" style="endArrow=classic;html=1;strokeWidth=1;exitX=0.5;exitY=0;exitDx=0;exitDy=0;entryX=1;entryY=0.5;entryDx=0;entryDy=0;rounded=0;edgeStyle=orthogonalEdgeStyle;" parent="1" source="R9rB7OafcmL0Vme7xIAX-26" target="R9rB7OafcmL0Vme7xIAX-40" edge="1"><mxGeometry width="50" height="50" relative="1" as="geometry"><mxPoint x="-920" y="410" as="sourcePoint"/><mxPoint x="-870" y="360" as="targetPoint"/></mxGeometry></mxCell><mxCell id="R9rB7OafcmL0Vme7xIAX-42" value="" style="endArrow=classic;html=1;strokeWidth=1;exitX=0.5;exitY=0;exitDx=0;exitDy=0;entryX=0;entryY=0.5;entryDx=0;entryDy=0;rounded=0;edgeStyle=orthogonalEdgeStyle;" parent="1" source="R9rB7OafcmL0Vme7xIAX-27" target="R9rB7OafcmL0Vme7xIAX-40" edge="1"><mxGeometry width="50" height="50" relative="1" as="geometry"><mxPoint x="-920" y="410" as="sourcePoint"/><mxPoint x="-870" y="360" as="targetPoint"/><Array as="points"><mxPoint x="-1070" y="270"/><mxPoint x="-1140" y="270"/><mxPoint x="-1140" y="150"/></Array></mxGeometry></mxCell><mxCell id="R9rB7OafcmL0Vme7xIAX-43" value="disp-raw-disp" style="rounded=1;whiteSpace=wrap;html=1;" parent="1" vertex="1"><mxGeometry x="-1020" y="773.8399999999999" width="102" height="32.32" as="geometry"/></mxCell><mxCell id="R9rB7OafcmL0Vme7xIAX-44" value="" style="shape=image;aspect=fixed;image=data:image/png,iVBORw0KGgoAAAANSUhEUgAAATgAAAG5CAYAAAAakygXAAAKRGlDQ1BJQ0MgUHJvZmlsZQAASA2dlndUFNcXx9/MbC+0XZYiZem9twWkLr1IlSYKy+4CS1nWZRewN0QFIoqICFYkKGLAaCgSK6JYCAgW7AEJIkoMRhEVlczGHPX3Oyf5/U7eH3c+8333nnfn3vvOGQAoASECYQ6sAEC2UCKO9PdmxsUnMPG9AAZEgAM2AHC4uaLQKL9ogK5AXzYzF3WS8V8LAuD1LYBaAK5bBIQzmX/p/+9DkSsSSwCAwtEAOx4/l4tyIcpZ+RKRTJ9EmZ6SKWMYI2MxmiDKqjJO+8Tmf/p8Yk8Z87KFPNRHlrOIl82TcRfKG/OkfJSREJSL8gT8fJRvoKyfJc0WoPwGZXo2n5MLAIYi0yV8bjrK1ihTxNGRbJTnAkCgpH3FKV+xhF+A5gkAO0e0RCxIS5cwjbkmTBtnZxYzgJ+fxZdILMI53EyOmMdk52SLOMIlAHz6ZlkUUJLVlokW2dHG2dHRwtYSLf/n9Y+bn73+GWS9/eTxMuLPnkGMni/al9gvWk4tAKwptDZbvmgpOwFoWw+A6t0vmv4+AOQLAWjt++p7GLJ5SZdIRC5WVvn5+ZYCPtdSVtDP6386fPb8e/jqPEvZeZ9rx/Thp3KkWRKmrKjcnKwcqZiZK+Jw+UyL/x7ifx34VVpf5WEeyU/li/lC9KgYdMoEwjS03UKeQCLIETIFwr/r8L8M+yoHGX6aaxRodR8BPckSKPTRAfJrD8DQyABJ3IPuQJ/7FkKMAbKbF6s99mnuUUb3/7T/YeAy9BXOFaQxZTI7MprJlYrzZIzeCZnBAhKQB3SgBrSAHjAGFsAWOAFX4Al8QRAIA9EgHiwCXJAOsoEY5IPlYA0oAiVgC9gOqsFeUAcaQBM4BtrASXAOXARXwTVwE9wDQ2AUPAOT4DWYgSAID1EhGqQGaUMGkBlkC7Egd8gXCoEioXgoGUqDhJAUWg6tg0qgcqga2g81QN9DJ6Bz0GWoH7oDDUPj0O/QOxiBKTAd1oQNYSuYBXvBwXA0vBBOgxfDS+FCeDNcBdfCR+BW+Bx8Fb4JD8HP4CkEIGSEgeggFggLYSNhSAKSioiRlUgxUonUIk1IB9KNXEeGkAnkLQaHoWGYGAuMKyYAMx/DxSzGrMSUYqoxhzCtmC7MdcwwZhLzEUvFamDNsC7YQGwcNg2bjy3CVmLrsS3YC9ib2FHsaxwOx8AZ4ZxwAbh4XAZuGa4UtxvXjDuL68eN4KbweLwa3gzvhg/Dc/ASfBF+J/4I/gx+AD+Kf0MgE7QJtgQ/QgJBSFhLqCQcJpwmDBDGCDNEBaIB0YUYRuQRlxDLiHXEDmIfcZQ4Q1IkGZHcSNGkDNIaUhWpiXSBdJ/0kkwm65KdyRFkAXk1uYp8lHyJPEx+S1GimFLYlESKlLKZcpBylnKH8pJKpRpSPakJVAl1M7WBep76kPpGjiZnKRcox5NbJVcj1yo3IPdcnihvIO8lv0h+qXyl/HH5PvkJBaKCoQJbgaOwUqFG4YTCoMKUIk3RRjFMMVuxVPGw4mXFJ0p4JUMlXyWeUqHSAaXzSiM0hKZHY9O4tHW0OtoF2igdRzeiB9Iz6CX07+i99EllJWV75RjlAuUa5VPKQwyEYcgIZGQxyhjHGLcY71Q0VbxU+CqbVJpUBlSmVeeoeqryVYtVm1Vvqr5TY6r5qmWqbVVrU3ugjlE3VY9Qz1ffo35BfWIOfY7rHO6c4jnH5tzVgDVMNSI1lmkc0OjRmNLU0vTXFGnu1DyvOaHF0PLUytCq0DqtNa5N03bXFmhXaJ/RfspUZnoxs5hVzC7mpI6GToCOVGe/Tq/OjK6R7nzdtbrNug/0SHosvVS9Cr1OvUl9bf1Q/eX6jfp3DYgGLIN0gx0G3QbThkaGsYYbDNsMnxipGgUaLTVqNLpvTDX2MF5sXGt8wwRnwjLJNNltcs0UNnUwTTetMe0zg80czQRmu836zbHmzuZC81rzQQuKhZdFnkWjxbAlwzLEcq1lm+VzK32rBKutVt1WH60drLOs66zv2SjZBNmstemw+d3W1JZrW2N7w45q52e3yq7d7oW9mT3ffo/9bQeaQ6jDBodOhw+OTo5ixybHcSd9p2SnXU6DLDornFXKuuSMdfZ2XuV80vmti6OLxOWYy2+uFq6Zroddn8w1msufWzd3xE3XjeO2323Ineme7L7PfchDx4PjUevxyFPPk+dZ7znmZeKV4XXE67m3tbfYu8V7mu3CXsE+64P4+PsU+/T6KvnO9632fein65fm1+g36e/gv8z/bAA2IDhga8BgoGYgN7AhcDLIKWhFUFcwJTgquDr4UYhpiDikIxQODQrdFnp/nsE84by2MBAWGLYt7EG4Ufji8B8jcBHhETURjyNtIpdHdkfRopKiDke9jvaOLou+N994vnR+Z4x8TGJMQ8x0rE9seexQnFXcirir8erxgvj2BHxCTEJ9wtQC3wXbF4wmOiQWJd5aaLSwYOHlReqLshadSpJP4iQdT8YmxyYfTn7PCePUcqZSAlN2pUxy2dwd3Gc8T14Fb5zvxi/nj6W6pZanPklzS9uWNp7ukV6ZPiFgC6oFLzICMvZmTGeGZR7MnM2KzWrOJmQnZ58QKgkzhV05WjkFOf0iM1GRaGixy+LtiyfFweL6XCh3YW67hI7+TPVIjaXrpcN57nk1eW/yY/KPFygWCAt6lpgu2bRkbKnf0m+XYZZxl3Uu11m+ZvnwCq8V+1dCK1NWdq7SW1W4anS1/+pDa0hrMtf8tNZ6bfnaV+ti13UUahauLhxZ77++sUiuSFw0uMF1w96NmI2Cjb2b7Dbt3PSxmFd8pcS6pLLkfSm39Mo3Nt9UfTO7OXVzb5lj2Z4tuC3CLbe2emw9VK5YvrR8ZFvottYKZkVxxavtSdsvV9pX7t1B2iHdMVQVUtW+U3/nlp3vq9Orb9Z41zTv0ti1adf0bt7ugT2ee5r2au4t2ftun2Df7f3++1trDWsrD+AO5B14XBdT1/0t69uGevX6kvoPB4UHhw5FHupqcGpoOKxxuKwRbpQ2jh9JPHLtO5/v2pssmvY3M5pLjoKj0qNPv0/+/tax4GOdx1nHm34w+GFXC62luBVqXdI62ZbeNtQe395/IuhEZ4drR8uPlj8ePKlzsuaU8qmy06TThadnzyw9M3VWdHbiXNq5kc6kznvn487f6Iro6r0QfOHSRb+L57u9us9ccrt08rLL5RNXWFfarjpebe1x6Gn5yeGnll7H3tY+p772a87XOvrn9p8e8Bg4d93n+sUbgTeu3px3s//W/Fu3BxMHh27zbj+5k3Xnxd28uzP3Vt/H3i9+oPCg8qHGw9qfTX5uHnIcOjXsM9zzKOrRvRHuyLNfcn95P1r4mPq4ckx7rOGJ7ZOT437j154ueDr6TPRsZqLoV8Vfdz03fv7Db56/9UzGTY6+EL+Y/b30pdrLg6/sX3VOhU89fJ39ema6+I3am0NvWW+738W+G5vJf49/X/XB5EPHx+CP92ezZ2f/AAOY8/wRDtFgAAAACXBIWXMAAAsTAAALEwEAmpwYAAA+KElEQVR4Ae19PZTbRrZma2yd4xc9OvNGhjJnpjJnYmfeSOzsvUjsbCaSOtrdSOrwRWpFuxOJinwmEhVOJCrzRmpls5HgzJnpzOfYM97va4MSm80fACzUvVX4cA4aIFBV997vVn249QP00ZE2ISAEhIAQEAJCQAgIASEgBISAEBACQkAICAEhIASEgBAQAkJACAgBISAEhIAQEAJCQAgIASEgBISAEBACQkAICAEhIASEgBAQAkJACAgBISAEhIAQEAJCQAgIASEgBISAEBACQkAICAEhIASEgBAQAkJACAgBISAEhIAQsEDgloVQybxCYPDpp58Oefb7778PsF+dr2Nz69atS+wLXv/tt98ucbg6X0+n30JACNxEQAR3E5PQV66I7F//+tcIRPU1iKzAcSOZ1RWMMkh6JY7v/vSnP81FfHWRU7q+ISCC68DjiMxGKPZ+RWoHkVld9Uh6JDukfwXC41GbEOg9AiK4QFXgk08+GaOo+9h5HAQqtm0xC2ScYX/1z3/+k0dtQqCXCIjgDnN7gahpgiIeoMtY4OhuQ2RXQqkXiCanOPJcmxDoDQIiuHauLhCxPUbWSbvsZrmmIOIX6sKa4S/BkREQwTUDnMT2HFlGzbK5Sz0H0Z2L6Nz5RQoFRuBPgcvLtbgrYgO5vYeBowyMHKHr+roi6yIDe2SCENiIwCcbr+riBwQwxvYEO6O2bz5czOdkyDFERHP/BsKb52OWLBECfyCgLuqWmnD79u0hZiCfo/EPtyTJ6jInI0B2p+q2ZuXW3hujCG5DFWDUhsvfgdy+2HA7y0uwdQDDGM3dUjSXpYt7aZQiuOtuH2Bc6iUuja5f7tcvENwllpWcwOqyX5bL2twQEMFVHmWXFI36NX4yktGGd14RzJ2oy6qqkDICmkWF9xC1TUBub3EqcvtYm/kBAM60Tj5e0pkQSAuB3hMc3ht9CpdxllTbZgSeV8tJNt/VVSHgGIFeTzJUDffPjv3jRTUuJykQ0b3yopD0EAJ1EOgtwVXkNqkDktJcISCSU0VIDoFeEpzIrXU9Fcm1hk4ZLRDoHcGJ3A6uZiK5gyFUAbEQ6BXBgdwmAPYJdm2HITDEEpKfMSb3/WHFKLcQ6BaB3hAcyG0MKL/rFs7+lA6C+xYTDz9wUXB/rJalqSHQl4W+/BqI1rmFr50LkNzxr7/+KpILj61KDIBAL9bBoRHy9Sst4g1QYdaKGPCDBMJ2DRX9dINA9l3UaiEvu6faOkAAXdUv8AD5QmvkOgBXRR6MQNZdVP53KzQ8vl+qrXsETvQPbroHWRKaIZAzwQ0QWbxFhFE0g0SpWyKwAMHdQd5Fy/zKJgSCI5DtGByit8cit+D1ZVeB/NQU3+vVJgTcIJBlBFd9+oizptoiI4CHyrE+sRQZdInbikCWERw+faRIYqvLu72BMc/H3UpQ6UKgPgLZEVy1oHdUHwKlDIzACD6YBC5TxQmBVghk10XFxML7RMbeOBh/iYjnDfQtudODy+4dZ4D5G/f5maIC9+/h5xD7gNc9b9C3RBTNCQdtQsAUgawIroocuPDU60ZSm2F/1XZJRRWh3kcZY+yeye4UNk6hozYhYIZAbgTHNW8jMzS3CGZEgwjsvCI1klyIjbOWY5TtcrZYUVwIF6uMQxHIhuCcLupdoKE/Q3ftyaGO2pUf3fJHIFAO7ruK6KCTZlR3OU73Okcgm0kGEMmDztFqJmCOiO1u1+RGlSDjArI45jVrpmK3qeGTh91KUOlCYDcCuURw7K79tNvUeHfRsM9jENsmi6pozs0ymYp4y0266poQ6BqBLCI4NOpJ10A1KP/UityoI6M5HPhPm0ON9bHY1ht8M26dWRmFwIEIZBHBoRHxndPhgVgcmp2EwpnD2aEFhcjv5R9ZI5rVkpEQDlUZrRDIgeD4Mcv3rawPmAkke9fbhx+9kJxHbAK6XkU5RiD5LqqTLtCpN3Jjnat0OrOuf4hqR9Y6SH4/EUie4NA15aJXy22KBjy1VGCXbOoGjC52pYlwz9sMdwSTJcIDAsl3UdE9/d0KyGp86S7kc/zN9YZI1/QVNhDt5wDIPU6unSjlGiOQdAS3fF+zsdWBMoA0TlFUEo220jWQ5c2LwYNo1DyXcgiBwxBImuCwJGJ0mPkH5Z4vX4w/qJRImStd55HE3RCDaHd446IuCIGOEUia4DC29HXH+GwtHrLPt950egNRnNmEA/C65xQWqZUxAkkTnFVUALmXKUVvy/pbzarOl78jHxXBRQZc4o6OkiY4RAWFhRMh95mF3EAyXwQqp2kxA2Tgrk0IREMgWYKznGDAjOAsmocCC7LUHT5TFBfYnypuNwLJEhy6iVbRwByQLnbD6voudZ9ZaAifFRZyJbO/CKRMcEMLt6GRvrGQG1KmlQ0iuJBeVFl1EEiW4OoY10UazETOuyg3Zpmw4TKmPMkSAlYIJEtwGOj/0gI0zJ4mTw5WNmipiEWN7bfMZAkObiuMXLcwkhtSbA42hMRDZWWKQMoEF90lGEMqowvtTuC8u6JVshDwgYAIroEf0MUqGyRXUiEgBIwREMEZO0DihYAQ6A4BEVx32KpkISAEjBEQwTVzwLBZcr+ptSbNr2+kWTgERHDNsBw0S+43NcYTC7/aSTMhEAaBZAkODfQyDATNSuE/cmmWw2XqwkirhZFcie0pAskSHD52+bOFzyA3eYLD13VNbEC3+J2FzySzvwgkS3BWLkPkaPaRzVA2wwZ9fDIUmCrHNQLJEpzVO6GI4MauPVpDOatPvVsNK9SAREkyRSBZgkNjMRnPgdwi8XG4AjaYdFGtfJZp25VZNRBIluAs/9EyxpIe1MDWZRJEvhMrxVL8zLsVVpIbBoFkCY7mg2guw8DQrBTInSDHoFkuN6lNyBmYlW4QkCK9QSBpgkOXx4TgUDsGlpFQ29qJ2dMJu9ht8x+Sz9BXh6itvIkjkDTBISowW3aABvsYvk8qigNe1Nlkg+w3JoIltNcIJE1wiEjmht4b4J+omBFGU7sRcT6xit6oq7GvmsKl9JkgcCt1O9BwfoINZpEUiOOu5YRHHf9x1hdLQ97WSdtRmgX+m9fnHZWtYoXAVgSSjuAqq2ZbrYtwAw33JcSYEWwNEwfQ8XmNdF0mmXdZuMoWAtsQyIHgXm0zLsZ1dvsQRVoTyFZTodtT6DjcmiDODVMfxTFRUjwikHwXFaAOqm6qNb5TREqn1kqsyq+Id7J6zeK86p4uLGRLZr8RyCGCY8OZOXDjxFMk54XcKt+I3BxU0D6qkAPB0W8vnDhvSXIDS30ckRthUPfUsjL0XHYOXdQrF2I2873lMojVeoQ1X5cgmVOD2dUCOLx0MOa2hEOzp0skdDRB4FMTqd0IZRTnYl0aCQbLMl6DbM5xvOjG3OulQtYjyKX9ptHjqlbQZ7r6W+cbEeB6yiEeigPsw2UKYPclzovl7/WF0vD3nPf0fu8Soc3HbCI4mMfZzPebzbS7ymgOlfGsq4qIxjGCDBLbyM7KzZIxuXAHd8rNd3t5lXV0BPL6uiIzElqIB9IC5VySBFH2JXCf4zev9X7LieCOnI09XatcJDpUvmeofNNrN1r+gK0TZH2AfYTd4+ZuVtkCJPhpDLn34X8SWxFLB9Y3RnmQ+cJgqCSWmXvlZEVwsNZlFLfmBT5ZZ9jfVE/acu3+tp9XT3/cvIedjWawLaGH632O3pak5shPCxDdtI9klxvBuY7ithAPCe8Se4mn7g+raVAhv8TvAvsQu2tCg36rWx+jN07wTADCA/itwNHlhjpWQrFnGBue4si6l/V2K0PrUojiMoT9o0k9i95Y3zgGOvmIQBJnV1EdxoafQdsyCY1bKJnLOrhV0xkJna9e0Hk8BBC9XEBaGU+imSQS23Ps76HBxEyL9oI5a/uI+tMOFJNSD6G21TlGcDSeH6R867mrUNtDaSXkurc7UDnnrs/VZ7JIDmm5Zq+2C9jErisfUNn475O9ZqeZ4BcQ3A9Q/T/SVD9Zrf+CRvJ9strvURx16hF2fj1mtCdpirc/Q0DAmd7/YNuBH/+RohHrOucawV3ZidCblXG8brR+d4LAHNHbcScl2xd61R2FGiN7VaJpMIM/TyEt6Wgua4KDc/ilEY6RDKJVi34KYtf0LkwvczOfURuiGk4i9LEOcSLipKtF6jHqSo6TDKu48enDp5C2bhEgxmW3IqKXzocj3+t9Csl9JDcCzomI13hbhhgkueU6BvfBGRxLQEVlBf3mw0WdBEMABHCB6I1LDbLZqn/sTXIbZWPUYYZ8g0iWrwTyyzC/HFZU3Ny5d1E/oAmSe40fow8XdHIwAqjwl5h1Y9c0m616t5djt32N2rb6Ev4u0Y5OUnr1qzcExwqLp9BrPJWHWz2oG00QyG5JCBrvBABwTZi27Qgs0I6OUyG53MfgVt20QAXmWNFi9aLOWyFwVclzwlLkVrseDBC1c1xuVDuHYcI+RXBXMFf/Qo/dVXVBWlY8PMHd/6vEJqaJ3JqgdS3tCcZfZ9euOPvRpwjuCnqG1gyx8UORXLvKaPGl4naa1sglcqsB0vYkz6sJme0pjO/0juCIdzV+cGaMfYriT/HEnqao+CadRW6bUGl07aq76pnketdFXXWfuquraOw8Z7R7lhO5VbOlHKrQdjgCbiecek1w9KtIbm/tTmrWbK818nkdiBqnqZYMuRv66WUXddV77K4iMrlLB61e1/nRETFJaUlATZ8N4G8uBRnUTK9kNRDg8it0+d298ZD9mww1fMMk/FTM39CYv8D5sGae3JPNsBzgBHuZk6FohP8bjfHbnGxyZMsQbYhfInETLPS+i7peOaqB5z6/f8jI7QzEdrGOTeq/NakQxYOuhjREcBt8znE5dmP69tYDn7wggayWgay4l588eovf6pqugNLFKesRHpAuXuFTF3WDh+GcH+Gkv4LguLHL+tmGZFldgr38J9X/SduzMqwyBuTG90u/ytE2bzahzXzBhoM6NbfWTRHcfg/wyc8u63h/0iRT8EOVp9C8TFL7GkrDf/QdCU5bPAS4dIRRXBlP5E1JvZ9FvQnJjSslHHWCB9Ix7sxv3E30ArsRtAm20a4yUTPqqM1vmvEBpS0uAvyenjnuIriaTudXTUkGqRMdGnsJk085RpLyl1pruu0Is3r8Im9RN73SBUVgbP1S/q2g5vSosGol/EOYnErXdY6Gft4HUluphowi3uP3YOWaTuMiYPq/OkRwhzvb7X80Z7SGCGYGUnsGM8vDTU2rBJAbF/ROvGtNP+HhM8fxHfx1CX9dQufFut6c3Ucavv/J/351D/dH62k8/oaux1YPVhFcwBpRVcAHqIBjOLUIWHTtopakhuMbdKlntTPml5DR20+OzeI/dJlif3HIxyNh4xg2PsDOo9fNLIoTwXVUJaq1dKtP2kFHohYol0//N6js80MaS0f6mRSLSOgJyOOxifAdQvkAgl7n1cOHvgu1cbaf9k5CFRiyHNhsEsWJ4EJ6cUtZXTY2NBiuX3uyRXRvL1fRW1cPlVa4Vr66QOaQxLaui9dlTTOQ+sm6sl3/1ixq1wir/OgIgNwmEOqG3EBs/GjB3epB1CW5EeurZU04kky6lkV5dbcxEhZ1E4dKJ4ILhaTKcYMACIWz2162KYgt+ife2QXG7uorOVh5EN0vIjgvzUB6hEKgwHjPMFRhB5bDLyCfHljGIdlLkOsxCpgeUkiovNCFUVzUTQQXFW4J6xoBdAWjN6ItNpHcplvuxbzMV6ZIsua64MFTcPItpvEiuJhoS1YMBLhkwnRDF9nd590rkpuZAgPhwCaqf0Rw1h6X/JAIeOiecsztIqRRocoiyXHCI1R5bcqJ3U0VwbXxkvK4RMC6e0ryAImcuQTnD6UWmGFmd3VhpWPsbqoIzsrTkhscATSee8ELbVCgNXnUUZULwUHE53XSdpUGD4FRV2WvlyuCW0dEv1NGYGSlPMj1IpW3SNiFtuyqxnwQieCsWoTkBkWgmp0bBC20fmELvExuGhXVV/WPlOjOm3WlQa7Dpvq2TS+Ca4uc8rlCAFFJtEazbjga7DNcMxvXWtenzu/q6x7zOmlDp+E4HMrk3vkmguscYgmIgQBIpoghZ5MMkOt00/UErr2w0hFvNRQxZIvgYqAsGZ0jEHNcZ82YGX6Xa9eS+InB/ikUNYk88VAYxQBJBBcDZcnoHAHDCO5V58Z1K4AEHX3DA+nLGEJFcDFQlozOEajGdTqXsy4AUZAJQazrccBvK4IuDtC5dlYRXG2olNAxAoWFbogaLyHXpIsXyl4Q9DxUWU3KAXaDJunbphXBtUVO+dwgEGvAet1gLLWYr19L8PeiIuqoqiPiHsYQKIKLgbJkZIkABsp/yMEwkE2Zgx2bbBDBbUJF14RADQQQwbGLmvyGCO5d8kZsMUAEtwUYXU4HgVhLDtJBRJouERDBLZHQUQgIgdgIdD7RIIKL7VLJEwJCYImACG6JhI5CQAhkh0DZtUWK4LpGWOV3jkDOs4Cdg5e5ABFc5g7ug3lWBIfZxyIHfIHf1znYsckGEdwmVHRNCNRAIBeCy8WOTS4TwW1CRdeEQA0EEPmYfiK9hoq1ksCOKG8VrCoDUi1Xf3d1LoLrCtmP5Q5QgTr7ckJVduezUR/N8XdWfbzRQrGRhdCQMvGam4kNqLdlSDu2lfXpthu63g4BVhgsPB3CgffwlOKxaFdS7VwT/LOTCZ+IkMV/KPKO70gaNvraiueQENiPE/+iyH0jPyxiyL0VQ0jmMgoQypiEBjtH2D1FUzMQ3hsQ7gx6ldiz3UA0r2HcyMDAKQju1EBuEJGou+8jPIRv6Ip6eY56+eTGjcAXRHDtAL0iNWR9gMoxbFdE3FyoUJeQ+CJXsgPBPYd9k7ioXklbgODu4GxhIPsgkextoF7wwWCxncSIfDUGV9+1A3YFGSlg51PvaSrkRhOpK3Wm7nhqv6UtuDzAnsWGhmr1wjjrxThFEIHZAyu9UQfLGLIVwe1HucCT7iEqwwRJsyGEymxGHTM8Sc9xLKtrSR4soxHUjRKRMaO4lLaCDzsrhVHnonCPIrjtHmYFeM5KgAr8CMlyIzdaTpsYlb6nrSQJXkxxs5xUQWTMIQvWkWQ2+PupobLzWLJFcDeRJrG9ZKPHrcnN29le4Uwsu9+vEya6uZV3QHKPIbuwkt9EbuXfcZM8IdOinr0JWd6uskRwH9H5ELHhkpnzP6pjdnY18Ayiew4NCjMtWgiO2XA2qMexOMuoaINKGy8N0J2mb802RLvzWMI/iSXIsxwA/gQ7nf6NZz0j6zZktwuRyS0QxyVk/xJZfmNxiEz4/wX+3DhjuAxfAa6focP34YoMWxJI+DvoaFnPOev8l7BWbS+t1xEcQ3U0Ys6Isnsx2A5Tf+8QG2D0NoVu66+//sqFzqWlt4DXU69YwY9PgI1172QW0z99JbgBKuFTNIbXqJBFTMBTlEWMiBWe/i+hv9cHwZVPPfgTWL28ffv20JOv4bsJsOGD3HqLNv5GQ29ZWxtbPp+uHIPw0BBi2x5I3gLYnVjOWq7bUXWlvUXhC+h1zKhyXd/Yv0lukMkhGOst+qLoXkVwDNEVtR1cxwfEkBHwwSUdWAAfVvDp1aJrFOUtsuRgPqPeyYFmHpSddR4FeCA32jHDvuBJrK0vERxnuNi9GsUCtg9yQHSXaMTHsDVqpYU8zniTYMcp4IyI9wIR71lkXVnnSWxuMAIOx7Ej/+wJjmMhmLV5qS5pZ80rZldsgIiEM7vsjia18WEA3c9iNPAqauQDYOAFJNhv8rZH1l1UOprdBJFbp9WcXbHlu62dCaIvsbM7mhy5ERToPWTXHjawJ1HwWuit6rK/RbmM3NyQG+2E/ec8xt6yjeDYIAAmHa0tEgJowGcgu4uQ4thoUS5JbRSyXAdlzaHDM/QuZgfqcvWyPzB6SBI9sKyusnNy4fOuCt9VbpYExwFwOPzRLsN1rzMEQn0fjeNsJLZJZ5r6KHgBNebYX6ELe1ln1rUadhmB0O4h3xi76w1tMcq33zaBkB3BoVEwaptsMlbXoiFwEMlx5g+N9yG0HUTT2JEgEMIl7CfxXdtwfeA4Srum68qP6EtDVmQfZfXJcpHbqmtNzzledoRuyWkTLZBnjEbM7+wVTfLllnYbieF6cqYyeoPSN8g6liHpIbYFGZHbFmBsL9eK5NjlwtgdZ/1GtupKekgEQG4mM6erNmQxiypyW3Wpq3NGchwy2LZdvV7FWVgkGG1LpOtpIoChhlNrzT+xVuBQ+dV4zaNDy1H+zhAYguS4lOTvqxLgt0fYX+LaaPW6zrNBYIYhiv+ytibpLioazgQA7ooQrPGV/I8InKLCT7nsA2Snd4E/4pLjmenEwiqgyRJcNW7Dro22dBCYQdVxOupK05YIRPmPWXV0S5XguLjxPQwc1DFSaYSAEIiGQK2JpVjaJElwILfXAGgUCyTJEQJCYD8CmDW1+vjCVuWSm0XlpAKsGW21SDeEgBCwQGCBwOMUghcWwrfJTCqCq95LZPSmTQgIAUcIYBFy9E8h1TE/pQiOSw00Y1rHq0ojBOIicBrjM1BtTEqG4BC9Pe77KzxtHKw8WxHgYDi/cDHdmkI39iKAcbczLv/Zm9AoQRJdVHVNjWpHnmLnGMc9W/1qB36/3fb+Z54QBLPK1YzpJquSIDhUQH7osNhkQOLX5tQfT8E3u+yA7feq+6Nd6XRvOwJ8LxI4MtrgWrz1jcuO+C7sZP2Gfm9GAFhafIZ9szI7rrr/mghnTTMhN84uzUlmaEzz1Qhih39u3Fr7FtgICbQW8AZK1y4sgPkzjN9e4Cp9sGnjyvtT+IX3JpsS6No1BDjmNr12xekP7xEcP3rItxVSbcRsUDPsr7ZEDgdXC+AzRiH3sfM4OLjAvApgF+ocJpV1zcJwiD6Wuhusq1fudifxc9c1waHxctZ04geuepqwO4SUjBqmOC6wx9j4D1kmEMRPVxc49nmbA4PztjN7qHcTgKcZ++s1aIH65eL/vF5Xa/cvzwTH6O39bvV93a3Gec4RNUwtNWMDhS59nHXmwyTIrF71rvNrlKeoGEMrqNMnwCLWwzpY83G7TASN9HEwK7sviOM8/O78XWtyo6nUAbrcoU74mVylbOMu2gq774TCn2OkLA+6zNrok0ueCtdj2JNkPfIawaUUvfHpdooKUDqt1MSS3a2RU/0OVYvfHeM/VS4PLWhbfnTNlv+LdbAtTW7XQWwl7Ha7gLcu3i4juFSit5WnW1kXcIN0JQjgGLqSBLLZ2AAxznYM29h1Krs0jDOwkHMXMuZdyvFSNus1eyNtxzC92EE9PEZwKURvCzSuk9QqQCbjSsvhgAuLhoSHb87/GMd7b6Sxy91FcNVMYGNDYmXA0+2Ss0mpkRvxqcaV7tKGWHiFlIOHCiOpO4yoQpbbpCzIn1Xjm4yIF03yek3LaBi6ncA2jrXxPJvNXQSHJ+RPQHfgEWESAyo3K0HqFZtLSl6DMIYecd6gk9fIgjg+gr4PgGWxQW/Xlypii72cKSomrggO5DaB9RwQd7dlRG5LbN2THBsgiIPLPmZLpb0eWXehL9cgpvDQmEHPZyn2Qpr63xvBvYQB46ZGdJ0+Q3JbQuaW5Ehu7AouFU3lyHFO6P4A+wQ6D7zoTTyhC6M1Pix43ovNE8F5nVxYcMyt7bujCdQit//fguNtwK9MAMONKnJCApHSPZAKj8XGRB1eBKldovhX0GOWcf3diaAbguNYBirB053aGtyETklOKDSBqppdfdskT4y0aKBnIIeLGLIiyOADfAQ592DXEPVq2IFMvqJ2ifLf4OEwR/mLDmQkVaQngnP3TS5UFK4HepKUR1sq6/EBA/w5qcP1Z1luVXeWX6oe0UCQ09c4DHi+Z+NSmXdMA7/NMZZW4pS7tjUEvBCcu+5p7o1rrR5c/USEwXcvR5vuWV1LvZtqhZvk/oGAi3VwVejuyifQ6dSVQhGUAZnQZlfdGkQo4wimS0SmCLggOGB73xO+7Jr2dFC2hO3PPPkC3bZ7nvSRLmkh4KKLimjpJ8BWZ+whBrqLqlvkKpKJYfhSBqImV5+Ihz9c1NMlPjqmg4B5BMeBVsDlhdyOqgimt+TGqouo6dxTFeY/HfKkj3RJBwFzgsPT2VPlXWS0LKF1LYRPpiD6snUBgTPCJ3wIahMCjREwJ7hqaryx4l1kUPR2DVU3Y3Eah7vmF/1ogID52AbGe9ysf6vG3soG+OWclG84cGzUfGM0iSjujrkiUiA5BDxEcF66HzN4r0zOg90pzHHIaXfF1y8ZEVyB1IP6OZRSCPyBgCnBORs8fqVKcQMBN5igrnh5EN4ASRf8ImBKcOh6FF6gQfeUEZy2FQQ8YeKprqxApFPnCIjg/nDQHAd2ybTdRMAF8YvgbjpGV/YjYEpwGFv5cr+K3adA43nTvZQ0JXjBxtNse5qe7KfWpgQHyAsPsPOLDB708KgDsLl0otfAiR5SIyEErAnOBVT43IyXRuwCj1UlvHzWWl3UVa/ovC4Ct+om7CId1ln93kW5Dcvku6efN8zTq+Re3k2Fn0zra6+cnomxiuCOjhS97anMGP8q9yTRbSHgEgERnEu3uFOqdKeRFBICNRDoPcEhOlEEt6eiYPzrhz1JYt3WREMspDOR03uCwzuOP2fiy+zN0NsM2bs4uIGWBFcEt0YFCgEhIARWELAkuBU1dCoEhIAQCI+AJcGV4c1RiUJACAiBjwhYEtxHLQzPsMbr3w3FS3QDBLwsOm6gspIaI9B7gsMM4dDYB+7Fe3ln2D1QUtAdAr0nOHce8alQ4VMtaSUEdiMggnP2n9x3u8vmrt4DtcFdUg9HwJrg5oebEKSEIkgpmRaCLqo5PiBZLcjOtH51aZY1wXVpW+2y8dK/xuG2oOXls/Ig2cUWFXVZCGxFwJrgyq2aRbyhiYbtYONNj9H2u1HviOCiwp2HMFOCA7F4ecfxfh7uDG8FIqd74UttXiLqyrvmuZSj7wiYEhwaj4txFejBLuqg75Vhg/3EZLThevRL8FEZXagEJo+ANcEtvCCIcbixF1286AFMRl50EcF58URaepgSnLOV6eqm3qy7D25esrnirK7YgCCpjREwJThq62j6nxFcQZ20XSHA7qmLqBZ1pJRPhEAbBMwJzss4HMHDe6mTNiDmmAdYPPJil6c64gUT6VEPAXOC8zQ7hob0ELAxctF2dOSme4o68kYOEQJtEDAnOAxkz9so3lGegafIpSMb9xYLn0xA9sXehJESOKsjkayWmBAI3ApRyKFloAL/hDK8RE78N4J3oM/iULsSzU+Sf+uI4PRvHROtSB7UNo/gKhBmHsCodBjg9aTHjvSJqgojWEfkRtvnUQGQsKwQ8EJwrsZYMObz6Pbt28OsPF3PmALk5orcNf5Wz3FKtRkBF11UqDaouqmbtTS4ioZ1ifcw7xqINhMJH7yG8JGZAhsEV8MF5YZbuiQE9iLw6d4UcRIsSCiIHtxETdQF3bUnILkncSCwlUJbocHIVovr0lkncKW8fjWbXxwKGcLGgjvq29ewbFBZx3awPP9gMNKVSFdWF0r8/oG/uWsh9AeYrp14ieC4Bo1jP0+vaefgB3Q6zr3ysDsOIn/rAO5rKqABn0Gvi2sX0/1RoI6PUZ++hl0jHIvQpqBcBgmXKPcNIt85jiX2Xm9uCA5ecNdNrWrGAhXz+Ndff2XFyXEr0DUlud2IGKyNTb17ClzHwPB+V4S2zz+QW6LuzkB6LzKuvzth8ERwR6gQL6EtK4WrjU9GRBLHUGrhSrHDleGSkNdoAMPDiwpbAhsnML8TttTuS6ui4YeQxHo86F5iPQlLskNv5BlylPVypZ/KyyzqEslXyxNPRxIAiQA6uamwAfBxS260DZizS/feyxeF9+DN3seE+lZd/QnSu6orxBMk9wh6vsf+OhFc98C+//at/UnipmAloTPiSq0nLaNIzjW5bfDGHN3VU1wvN9yzvEQcOXbMiM0VodUBhVEddD8HttM66VNM4y2CI4YvvAKJyrCM5AqvOtbQKzVyo0kjRh6IOp7i3AOREMMn1Al1gusGPehEnBpt0L1AhucMKnKN6G41QiROYq+TDavWL1A5TlKbXa3Gh1Lvai/giDOrqAOkNoF8L0QLVYJuc9Tr89Tq9S4EPtl10+jeL3iiFJA9NJJfR+xnSDRBZbiFMH9eJ4N1GnaloMNL7NQ95Y36jwH9GGTz/zDmVcYwhg8HyPwOsohj6hhug6zAjQlwHQDX/4vzX7YlTOW6xwiO2BUM/xMB0ev40BI+YvkcP0bLC5kdZ4jmzmBT2ZVd7I6C3NgV7c3G8TnYfZp6NOcxgmMlWiQQxS0rO2f7ONDMaO4SF7089ThO9D+xk9y+Wiqb4fGrDvHnw+ElXDvJELedJsHmARIso7m/70zs+KbXCI6QpRTFXbnYy6wUGuUEujxGJS2uFOvPnwVMDTI+BwzHKIsPBzb0Xm98cKPLegIQytSA8ExwR1XXapIaqCQ66PwCleICRza6GBsjtkcQ9KCHxHYNXzZIYHHWtntVRYScSND2EYEkJ9ZcExyw5Yzqex4/4pzc2RQav8I40awLzatI4z7KnnRRfuJlToH7OWwo69qR6kO1rn0B0p1azWC30d07wR3haZrTAO8M0cUb2HTZNrrgeiVEhpzRuweHj9s4vWd5+KWaZzWiaT5M2SUVpnsqCPBM5iMI7gmOWIMQ+Ant4R7ck7uNilLCLu4c4/h5kwG49yWuLz+pU2xKo2v7Eaiw3rZqn9371znWsf3ItE7B6Pi0de5IGZMgOEYtqKCvI2EiMXkjMAeRrS5mFbm197d7kvO6TOQa5IhuSnQfBrj4zbUb+iEEmiNQIMsEERuj4neoV9+B8FSvmuPIHEO2S7RPt8tIkojgKuz5pPX0357aVQnlEgL5IeB24iElgjvy+uXZ/OqrLBICjRE46WqlQGNNVjIk0UVd6otQ+Ed0J7iNltd0FAJCwAUC32Ks/O9soy60qZRIKoJbAod+PyccRsvfOgoBIWCPAMY0uRrgGJos7LX5QwOP34Pbiw1C4RNO++9NqARCQAhEQwA9K046uHoDJEmCg8cWAJLvxrl5UkSrRQkL4hM+YfWlej0E+IL+uF7S7lOlSnBH1X8J4mdytKWBwCm6L3fxlD9W9J2Gww7Qkm+EDA7IHyxrUpMM61YzIsDSkR9w3c0TY11H/T46gp/OQW4XxALHEr+fgeh+xs71Z7l+PLLPrv8M7fIr+Plv1iAkTXAEryK5AqdD/tbmDoEpSO1GpA2/fY/9r2gIX0Bj+c6d2w5W6Ct0Vd/wgXZwSQcUkOQs6iZ7ASbD4smme7pmhkCtV3mq9Y0cnB6ZaSrBwRHAA8z8f9smH8EtvQIwXyEaKPBb0cASFNtjLXKjinjK/wj/vYD/3uH4DbquA1vVJT0EAvQjhyLg0+9DlNemjGwiuKXxiuSWSJgea5PbJi1BdPxE1kPc6yvRzVdwWSxxAFGQMFJ7gC+wrOsObKAd0bfsCI4IYkX1U1SGR9HRlEAicBC5rUDIT9Y/xu/JyrXsTlFP+bmsOQx7AyLgscS+c6u69CQ6fuh0hH2A3e0GGznJ9MRCwSwJjkCicUxw4LictkgIdFGRq09lkehGkcyIJWYKYnvR9sOnq0pWdf0Bro1Wrzs6ZxT3uYU+2YzBrYOHxrZcQjLCPS1FWAco/G+uc7sIXSxn4eBLjs/9gCO/ZOw6WqlhPyNcvonzgrbVSL83Ces6ywPRvUHiotr35ouYgMtG6L/LiDKvRGUbwS2BZDiPCsV//VYsr+kYFIEFKu9xtfA6aMEbCuMnsx7Bl4zoktrYuEFApzFwqiI6zkq7eRjAfpMZ1ewJrmoFAzj9Jc5H1W8dAiDARoso5BhFLQIU16QIjs+xAY+bZLJKC5wsxqDc1Xk8mI5DdMmb+DHbLuoaCL+gkr0AwNxGa/f0swUCwPGCXS1k/aVF9kOz8B/J/A0k9wZHdlu5WNjjtoBu/x04TQ2Uc1nn4a9XMbHoSwT3AVMOWiPqeI6KV3y4qJMmCLDRnsR+Eu9S0GOXDPrG7LrvgsfThFv0yYa+RHAfKsBy0BqNghMP33y4oZM6CMwQjRwDw3/USRwrDaICDrL/1ZFP3ZAbfUB8OMiPU+suPScbuJg7Wv3pXQS32ugUza2isf0cFbJExTz1FLVt0xYk9xPumQ6uA6u7MSYTtmGw7Tr04gQNxy4tt1DrJGvZ8KdaqTJNxAaLaOQOGvA5TIw9UJ4Cqhzr4gD53RTIjTPmANWU3IDXmUdyY2WDHy9wmPLccBvHlN1rglsCDcc/QdfrDn5Pl9d0vHoj4S6xARaLFPCAD6M2ng2YzCoS2XDLxyVgdMaI3FCbAXtOseSL4D4izQFQ/vuzvhMduxB3iAWgKT/C4/8M3a97hlpe1R9D+XVFc3yQvjXb8BAYxRIugruJdNlTokuW2FZcGK3hrMi8Ok1pmKMabpit2xDrd8wH0a1YRiUsp8ATbwKnPIQNg4Tt2KQ6x9ie4Yk6xc1yU4JUrlXvrL620JddPmDIyD+ljYul3xspHG25iCK4/R5m5eUYHV8WZmhv9uTbr2rtFLSB3fHPaRvOS+xJb7BjaGUAHn7nVrIPkFsi7/SA/IdkHVQTQoeUUSuvIrhaMN1INKiiOo75jG/c9XlhjkjjFYiA5Fb6VLG9VohGniP3pH0JrXMyGmH0tmhdglFGy6gXJp8AN9bFTrdPOy0938IXIIoLmMed7/yNcbwHAhnhaV7g3Hxjtwm6zKEIvzPGirQwV6pbBYpui99aerLYciwOD2rWk+jYoX4OgSix63RTBBceXo5tkOi+rpw4Ci9iY4lzyOSK/ncgtDlSlBtTZXoRmP9uZFqUSKQr2xDFWX0cdoZ6yneZO91EcJ3C+0fheEo+Afk87kIUCM3iSxVdmHJQmVYEh0aadBsy7KbOgd3xQU6vkVmTDDVAUhLfCLCRGmk4N5IbTKzVGyp4MBfBjNhRkAhuBzi6JQR2IYBG+mbX/YTuzWPrGmvcTwQX27OSlw0CaKRlJsbkYscNd4jgbkCiC6khEKu7s45LLgQH/H5Yty2X3yK4XDzZYzusCK7HkCdjugguGVdJUSEgBJoiIIJripjSCwEhkAwCIrhkXCVFhYAQaIqACK4pYkrvDgEspJ67U0oKuUBABOfCDVIiRQQsv2ASEi/MBn8dsjxPZYngPHlDuiSFACLHL5NSeIuyOc9Ci+C2OF2X00EArxuVFtoightZyA0tExEcv+wRdQOpXsYQKIKLgbJkdI1A2bWATeVXxDDYdC+Va9WnvqKrC+wWMYSK4GKgLBmdI4CIoOxcyAYBVgSxQZVWl0A091plPDAT5CqCOxBDZe8RAmgwpZG5943kBhGLB8MkSEENC0H3/ueGWVolVwTXCjZl8oYAGqrVlz3GwKLwhkcdfaro06SLHWtpjwiuTk1QGvcIGEZwR/geHf/jWoqbmd6YGFIXNcUaI51tEKg+024ivOrmmURCbQ2uPhI6apv/kHzVeOnikDLq5lUEVxcppfOOQAkFozSaDUDwHw893XDd7SWQTCef0K9jcKwJBuoigqvjEaVJBYG5oaITw0+nNzIb41+PkGHUKFPAxDHHS0VwAR2noswReGWpAWYGn0O+965qgQjKLHqjf4DTLJafRHCxkJaczhGwHIejcSAO/stIz11V/sPyl1DVjISr8beSeMXYRHAxUJaMWAiUaECXsYRtkTMBiTzZcs/0MskXJDy0VALYRIveaKcIztLbkt0FAi+6KLRJmewCgkwmTfJ0nRb6sPtsrhOwieofEVzXNUvlR0Ug5vjOHsOeeyE5L+TG7umvv/4aNcIWwe2ppbqdHAIlNJ470Zokx8jJauPyldcQPrFSYE1u1OiNskVwax7QzywQiN6QdqDGMbm3uF/sSBP8FpesgNzeo+BR8MJbFojoetoya+tsIrjW0CmjVwQwmzqFbgsv+nFgH2Tztpp8GHSsF2dyn6M7yMita1lNTJkhcdkkQ4i0n4QoRGXcROD27dtDXP0PVOr/geO3qORdVbYCMkYo/7/hqf0LnpI/3tSmf1eAx79hHzmy/DPqg5114meOR0G3XwLqV8D/j1H+/0GZ3wQsN0hR0OsvqJtlkMIaFHKrQVol3YMAnpxjOPIeHMljsSd5J7fZcCB7jsJfIZLhU7OvG8ef2EXr6sFyKK4L+GmK/cUBA++0cQRFHmAfH6pQh/nnqIvHHZa/tWgR3FZoat/gk/OhJant0PSqEeHLDc+QptyRLstb7BKCQB57N275UMLxHXS+rD7BfsNfHFdDmgH2Iey6B7tG3m2jftD1GDbNLXQVwbVEvapsbDyjlkXEzjaHwGc9i+q8R3Gx64CFPLPojcZqkqGhy9El4KzYezxFXyPrqGF2y+TU9SV1pw0478O2gJ8YvWozQgDR27mR6CuxiuBqos+IDd3Q53BYUTOL62Ro+ByrO+tBRMf3L9/m4jfXleqmcjPUr5Obl+NdEcHtx/pq2h3JRvuTJpliDgI4O2Cg273RiFg5AM+XzLXFQ2ABcrsDcYt4Im9K0jKRm5h8uIKG/wQ7G0bx4WJ+JwWiuT8jwrmF4zw/846OYNc/4MchbPsqR/s82gTM/5eH+qQIbkPt4Bo2PH3YHWWj6M2GCnmJaOc002hOEw7xarLpxMKqmZpkWEUD53jSP8JYG8dsekVuhIE203ZisAZLDj8XMOI0B0Oc28CuqRuc1UX9WFv4hP8OjTzHxv3RyhpnwOBbdukQ0f0dyUOutq8hvbsksIdd1QISevfw6g7VGyX/J3D+/sZVowvqov4BfIGK/7KPUduuepdpl5Wzqq/l612eb3cPmF5gQe9Zu9zd5Oo9wXG8Dd0yrmkbdANx8qUuQAjHmY3LcWacX/iQzwNVTz4M0Y7uBiouWDG9HoOr1raJ3HZXpwEfACCEye5kSd0tSdpJaexY2YrcXOLZ2zG4qsFyCchnjuuOF9WI0Rik8AMrsxelDtEDpP0j7aFdh5SjvEcLtKUT4Fl6xKKXBMduKRrqd3CIyK1ZrcyK5EjWIrlmFWAttfvhi96NwWnMba2KtviJwWSzr0O0UHdvliqaf743oRKsIuCe3Khsr8bgRG6r9bP9OSKfl8SyfQm+cmLd1hQanfrSyrU2SZAbEexTBDdAd0QvXYdrNy7eNQxnztGRIrlaaCZDbrSmNwRXkVs2UUetqthxIo5hYXD5GGIWHYuKVryi/O1Qp+jvXnRRsRzkqRZ2bq+4be8QU0Q9T9vm95iP6/3QZb3LxuxRP0OdZik+zLKfRUUDHKNSXBhWjNxFDzkTmRkh8EOZf4NdX8B5w9wduM8+YHEGcuMbCsm9tpd7F1VfkNhXe8Pc53gcV7GXYYrzU0r1gOQM68CPVnE0AbGVsP8k5bdYsu6iwjlcyNu7ihmn+l+TwgdJlsssQNyzirzn1yzO/AffK0XUdjdlcqOLsiW46sk7yrweejJvhC7dI08KBdSlBMlxMuUE+yJgue6KYtRWrXNklzR5W3PtoqpratN0sls6sgFG1i1OrEw23Ev5EscdzxG1XaRsxLruWUZwmDV9DEMH68bqd+cILBt/54IMBZDETxGtcsxxbqhHKNFXxAab7uRGbgQoxwiOn8J5H8r7Kqc5AmwsyFU2z5lejmrd3ENoPklMexLbs4rUku+KbsM+O4KrBruTqWyoZJcY82Ble7PJSbh3D/cKHItN951ec/NN/oj48KOpE/iJZOe291DVt+U/AM+W2JZ+z43gUojeWKlm2F8h0pnjWLeSsfs3Qvr72MfYB9jdbmjoWb2Q3wRo+In+ceMnkBq/fzeDT16kPivaxA9MmxXBOY/e5sB7+eQk9gdtVSNitDA6qKDuMnN5BWcde73RTyCWe+gK8ljEAoORGkht3kdSW8U4J4LzGr2xkp3jW/XzVeBDnfOrxKjMnFQZhSozVDl9GouriRnr6BD+GpL0kGeI/eBInBEayitxfIPjZcOeQU3V00yWDcHhafUEzmVD97JdzU7FmplCw5nA8KfYD24wKCPIBn+4+yckQQwLXAgfUiwSdaUW4QHXK0LDcdG3LmdT6LMhODTwn2C8i8aNJ+kl9LH4B8oc6Pb038G4pOLzppVS6YVAKASyWAcHMhkDEBfkBj2uvrpg9GQtEQVwfdYUu4eNEyMTD4pIh34ikAXBwXUPnLhvWg2sLyz1gQ6nkD+11GFFNmcTtQkBEwRy6KIySmD31HojuZFY3GzA5TmUmVgrVHVTTUnfGgPJt0Eg+Qiu6p7aoPdRKpdEuCI3quYlknPio4/e0llvEEie4OApTrebbZxQ8EhuS0Cg2xl1XP42OqqbagR838Um30WtuqdmEwyYtXT/zSwH/2dAs6l9Zxoj+5OO4Kp/XWdGboiMzo1mSxtVF+oIXZ81yhQ28aDyVdhSVZoQ2INA0gSH7tdoj31d3l7EWsQbwgjo+gQkV4Yoq00Zxr5qo7LyZIBA0gSHldxfG/rgDLKTmhkEXudWeEG26Vipld2Sa4tA0mNwGP/iP3IeGkCY7JgSMHsPzIrYmDF6RBR5J7Zcyes3AqlHcBbkdgSCmCZcbV5Y6G5BqhZ2SqYvBJIlOMtBazRWE5IIUXUQRU1DlNOmjOVL5W3yKo8QaINAsgSHLo/J7Cm7WinMnO6oDPyszuWO+53dsvJZZwapYPcIJEtwiERMuqcYw5q59+oeBWHDfE+STm6D4Ex81okxKjQJBJIlOKA7sEAYjfSNhdyQMnOwISQeKitfBJIlOEQh/27hFsgtLeSGlIk1aZchy6tbFsYuLZf11FVT6TJCIFmCs+ruJD7+tqy65fIk8tEk6o5so8Q5QiBZgjPCcGEkN7hYPCDK4IWqQCHgDAERXDOHmHTtmqlYLzW6i2W9lEolBNJFQASXru+kuRAQAnsQEMHtAUi3hYAQSBcBEVwD32HcqmiQXEmFgBAwRkAE18ABmb1POWpgupIKgSQRSJngSiPEc1jqkIMNRu6X2JQQSJbg0F38wQJovDA+tJAbUqaVDfBZ8m+BhPSDyuoegWQJrntoNkvAO7CjzXfSuWr1Hm86CEnTXBBIluAwHmayJg1yk/8yrZUNkFvm0nBkRxoIpExwCyOIR5Cb8hgWdR9bYCeCs0C93zKTJbjffvttbuW6lP+RsaXu8Nmllc8kt58IJEtwdJfV+5SQ+zDh6vLASPcF5HLXJgSiIZA0waHLYxIRQO4wxc9vVzqPotWu64JMfHVdBf3qGwJJExwiqXdWDoPsx1ay28q11BmytUSkreOUrzUCSROc1ae3K7RHluNZTT1uHL3xP5EpgmvqNKU/GIFbB5dgXABI5ndDFfj/Ue9AvvexpQEeBvwfsoUVVsDp8wRwsoJHcjtCIOkIrsJk3hE2dYodgGCf10lomQY6PrUkN3RPGb15fwhYukiyO0IgeYJD43nVETZ1ix0jOnpUN3HsdCC3CWRyt9xeWAqX7P4ikHwXFa4r0IjfO3DhKbphUwd6fFABuIzx4+WHC0YneADczeR/WRghKLFtEciB4I6q8aVhWxAC5nNDcrdv3x7indPXsG0Q0L7GRSHCLqHHncYZlUEIBEAg+S5qhYGXLtDzqksYwDXti+CMqQdyqyx41t4S5RQChyGQRQQHCDjY/9NhUITLjajlHATzJFyJ9UvieCAmFJ7Wz9FtymqWuexWikoXApsRyCWCW8C86WYT418FwTwG4bJ7WESUzrHI157IDbbPsJcRMZAoIXANgVwIjgtJvXRTlwBzIfBbRFRPcKHTcTDKoCzIGWF3s8En6p668UY/Fcmli3rlvSpqGnlzJQfaodMzdFunODLaDLGxWz5G2Y9BJEWIAkOWocmFkGiqrLYI5EZwYwBhvixihzNIbjPsrzA2xWPjjaSGTPex8zhoXEC8DG5mlOOZLEneEMiK4AiuoyUjdXw9R6TzBhFYyZ0Zlt9Mw0zokL9xv+CO+/fwc8Rr3jdFb9491B/9siM4LpFAA+MAvzY7BBS92WEvySsIZEdwtM3rWNwK7jmfztH9Ps7ZQNmWDgJZEly1ip+zitoiI4AhAr2WFRlziduOwCfbb6V7B7OVP2LMitsoXSvS0xx4X2AM8UV6mkvjXBHIMoKrnGX+DbRcK80mu6qJhbu4t9h0X9eEgAUC2Sz03QDeAt2l0w3XdakDBCqsRW4dYKsi2yOQZRd1CQe6qlx+wW20vKZjeASAL7umfw1fskoUAochkHMX9QMyia2N+6B3Cifoml7iQXIMXRW9peCwnunYC4KDT/la03see+bfrs3l/6TguFvZtSCVLwTaIJDzGNwqHhyPY5ShLSAC6JqeoLgyYJEqSggERaAvBHdUfTL7NCh6/S7sFONu835DIOu9I5D1JMM6+BwvQtTxM/Zv1+/pd30EOKmArul/1c+hlELABoFeERwhBsl9j+5qgdMhf2trjMAU5PaXxrmUQQgYINA7giPGILlXIrlWtY3kpm5+K+iUyQKBXhIcgRbJNa5uIrfGkCmDNQK9JTgCT5LD8hEuHfnG2hHO5YvcnDtI6m1GoC/r4DZbX10FyU1w+rz6qcMKAngInGEh78XKJZ0KgWQQEMFVrqo+lMnPnWsx8B+YLHDghytnFUQ6CIHkEBDBXXdZgcmHl1gGMbx+uV+/ELXx9Sst4u2X27O0ttdjcBs8ukDj/isIjttow/3sL8FurnEjuTGC0yYEkkZAEdwW9/GrwGjoz9HgexHNgdhLRK96O2FLfdDlNBFQBLfFb+ii/bgSzZHkPtuSNPnLsPOcXVLsZfLGyAAhsIKACG4FjE2naPxz7H9DdDPA/dyiOS7/OIF9s02265oQSB0BdVEbeLD6ZzZPkWXUIJvHpHN0vc/1srxH10inkAiI4FqgWRHdQ2SdtMhumWUKYnshYrN0gWTHREAEdxjaXFYyQREPQBwFju42dD9LKPUC42tTHHmuTQj0BgERXCBX422IMYq6j53HQaBi2xazQMYZ9ldaqNsWQuXLAQERXAde5FsRKPY+oqZRrGUmiNQuEU3OIfeVuqBAQZsQAAIiuO6rwQCEN6zI7msQUXEo6ZHMUEaJ4zuSGgjtEmYwatMmBITACgIiuBUwIp9eER9lgqgG2Ieb5IPISGZX5CUi24SQrgkBISAEhIAQEAJCQAgIASEgBISAEBACQkAICAEhIASEgBAQAkJACAgBISAEhIAQEAJCQAgIASEgBISAEBACQkAICAEhIASEgBAQAkJACAgBISAEhIAQEAIdIvD/AS5Ray2SDPa1AAAAAElFTkSuQmCC;" parent="1" vertex="1"><mxGeometry x="-1230" y="750" width="20.23" height="35" as="geometry"/></mxCell><mxCell id="R9rB7OafcmL0Vme7xIAX-45" value="" style="endArrow=classic;html=1;strokeWidth=2;exitX=1;exitY=0.75;exitDx=0;exitDy=0;entryX=0.75;entryY=0;entryDx=0;entryDy=0;edgeStyle=orthogonalEdgeStyle;rounded=0;" parent="1" source="R9rB7OafcmL0Vme7xIAX-26" target="R9rB7OafcmL0Vme7xIAX-37" edge="1"><mxGeometry width="50" height="50" relative="1" as="geometry"><mxPoint x="-850" y="560" as="sourcePoint"/><mxPoint x="-800" y="510" as="targetPoint"/><Array as="points"><mxPoint x="-509" y="259"/></Array></mxGeometry></mxCell><mxCell id="R9rB7OafcmL0Vme7xIAX-46" value="" style="endArrow=classic;html=1;strokeWidth=2;exitX=0.441;exitY=0.044;exitDx=0;exitDy=0;entryX=1;entryY=0.75;entryDx=0;entryDy=0;edgeStyle=orthogonalEdgeStyle;rounded=0;exitPerimeter=0;" parent="1" source="R9rB7OafcmL0Vme7xIAX-36" target="R9rB7OafcmL0Vme7xIAX-27" edge="1"><mxGeometry width="50" height="50" relative="1" as="geometry"><mxPoint x="-694.5" y="783.8400000000001" as="sourcePoint"/><mxPoint x="-870" y="327.5999999999999" as="targetPoint"/><Array as="points"><mxPoint x="-685" y="425"/></Array></mxGeometry></mxCell><mxCell id="R9rB7OafcmL0Vme7xIAX-47" value="обновляет статус" style="edgeLabel;html=1;align=center;verticalAlign=middle;resizable=0;points=[];" parent="R9rB7OafcmL0Vme7xIAX-46" vertex="1" connectable="0"><mxGeometry x="0.7681" y="-2" relative="1" as="geometry"><mxPoint as="offset"/></mxGeometry></mxCell><mxCell id="R9rB7OafcmL0Vme7xIAX-48" value="" style="endArrow=classic;html=1;strokeColor=#000000;strokeWidth=2;exitX=1;exitY=0.5;exitDx=0;exitDy=0;entryX=0.25;entryY=0;entryDx=0;entryDy=0;edgeStyle=orthogonalEdgeStyle;rounded=0;" parent="1" source="R9rB7OafcmL0Vme7xIAX-29" target="R9rB7OafcmL0Vme7xIAX-34" edge="1"><mxGeometry width="50" height="50" relative="1" as="geometry"><mxPoint x="-1040" y="650" as="sourcePoint"/><mxPoint x="-990" y="600" as="targetPoint"/><Array as="points"><mxPoint x="-1200" y="390"/><mxPoint x="-1200" y="560"/><mxPoint x="-1124" y="560"/></Array></mxGeometry></mxCell><mxCell id="R9rB7OafcmL0Vme7xIAX-49" value="" style="endArrow=classic;html=1;strokeColor=#000000;strokeWidth=2;exitX=0.75;exitY=0;exitDx=0;exitDy=0;entryX=0.25;entryY=1;entryDx=0;entryDy=0;edgeStyle=orthogonalEdgeStyle;rounded=0;" parent="1" source="R9rB7OafcmL0Vme7xIAX-34" target="R9rB7OafcmL0Vme7xIAX-27" edge="1"><mxGeometry width="50" height="50" relative="1" as="geometry"><mxPoint x="-1040" y="570" as="sourcePoint"/><mxPoint x="-990" y="520" as="targetPoint"/><Array as="points"><mxPoint x="-1073" y="560"/><mxPoint x="-1100" y="560"/></Array></mxGeometry></mxCell><mxCell id="R9rB7OafcmL0Vme7xIAX-50" value="" style="endArrow=classic;html=1;strokeColor=#000000;strokeWidth=2;exitX=0.5;exitY=1;exitDx=0;exitDy=0;entryX=0.5;entryY=1;entryDx=0;entryDy=0;edgeStyle=orthogonalEdgeStyle;rounded=0;" parent="1" source="R9rB7OafcmL0Vme7xIAX-29" target="R9rB7OafcmL0Vme7xIAX-43" edge="1"><mxGeometry width="50" height="50" relative="1" as="geometry"><mxPoint x="-920" y="560" as="sourcePoint"/><mxPoint x="-870" y="510" as="targetPoint"/><Array as="points"><mxPoint x="-1290" y="480"/><mxPoint x="-1310" y="480"/><mxPoint x="-1310" y="880"/><mxPoint x="-969" y="880"/></Array></mxGeometry></mxCell><mxCell id="R9rB7OafcmL0Vme7xIAX-51" value="" style="endArrow=classic;html=1;strokeColor=#000000;strokeWidth=2;exitX=1;exitY=0.5;exitDx=0;exitDy=0;entryX=0.25;entryY=1;entryDx=0;entryDy=0;edgeStyle=orthogonalEdgeStyle;rounded=0;" parent="1" source="R9rB7OafcmL0Vme7xIAX-43" target="R9rB7OafcmL0Vme7xIAX-26" edge="1"><mxGeometry width="50" height="50" relative="1" as="geometry"><mxPoint x="-920" y="560" as="sourcePoint"/><mxPoint x="-870" y="510" as="targetPoint"/><Array as="points"><mxPoint x="-890" y="790"/><mxPoint x="-890" y="524"/><mxPoint x="-970" y="524"/></Array></mxGeometry></mxCell><mxCell id="R9rB7OafcmL0Vme7xIAX-52" value="" style="endArrow=classic;html=1;strokeColor=#000000;strokeWidth=2;exitX=1;exitY=0.25;exitDx=0;exitDy=0;edgeStyle=orthogonalEdgeStyle;rounded=0;entryX=0.25;entryY=0;entryDx=0;entryDy=0;" parent="1" source="R9rB7OafcmL0Vme7xIAX-27" target="R9rB7OafcmL0Vme7xIAX-37" edge="1"><mxGeometry width="50" height="50" relative="1" as="geometry"><mxPoint x="-760" y="580" as="sourcePoint"/><mxPoint x="-710" y="530" as="targetPoint"/><Array as="points"><mxPoint x="-560" y="395"/></Array></mxGeometry></mxCell><mxCell id="R9rB7OafcmL0Vme7xIAX-53" value="" style="rounded=0;whiteSpace=wrap;html=1;strokeWidth=3;" parent="1" vertex="1"><mxGeometry x="-1520.5" y="960" width="1379" height="250" as="geometry"/></mxCell><mxCell id="R9rB7OafcmL0Vme7xIAX-54" value="ЕПГУ" style="rounded=1;whiteSpace=wrap;html=1;" parent="1" vertex="1"><mxGeometry x="-6.300000000000011" y="1048.3000000000002" width="120" height="60" as="geometry"/></mxCell><mxCell id="R9rB7OafcmL0Vme7xIAX-55" value="Egress Gw" style="rounded=1;whiteSpace=wrap;html=1;strokeWidth=2;align=center;verticalAlign=bottom;strokeColor=#82b366;fillColor=#d5e8d4;fontSize=11;" parent="1" vertex="1"><mxGeometry x="-196.29746987951813" y="1048.3000000000002" width="112.65060240963857" height="62.5" as="geometry"/></mxCell><mxCell id="R9rB7OafcmL0Vme7xIAX-56" value="Istio Envoy" style="rounded=1;whiteSpace=wrap;html=1;strokeWidth=2;align=center;fillColor=#647687;strokeColor=#314354;fontColor=#ffffff;fontSize=11;" parent="1" vertex="1"><mxGeometry x="-182.98421686747002" y="1058.8000000000002" width="86.02409638554218" height="30" as="geometry"/></mxCell><mxCell id="R9rB7OafcmL0Vme7xIAX-57" value="" style="endArrow=classic;html=1;exitX=1;exitY=0.5;exitDx=0;exitDy=0;" parent="1" source="R9rB7OafcmL0Vme7xIAX-55" target="R9rB7OafcmL0Vme7xIAX-54" edge="1"><mxGeometry width="50" height="50" relative="1" as="geometry"><mxPoint x="113.69999999999999" y="903.7" as="sourcePoint"/><mxPoint x="163.7" y="853.7" as="targetPoint"/></mxGeometry></mxCell><mxCell id="R9rB7OafcmL0Vme7xIAX-58" value="Сервис взаимодействия с ЕПГУ" style="rounded=1;whiteSpace=wrap;html=1;" parent="1" vertex="1"><mxGeometry x="-540" y="1059.2" width="113.65" height="62.5" as="geometry"/></mxCell><mxCell id="R9rB7OafcmL0Vme7xIAX-59" value="Адаптер СМЭВ&lt;br&gt;(Гостех)" style="rounded=1;whiteSpace=wrap;html=1;fillColor=#dae8fc;strokeColor=#6c8ebf;" parent="1" vertex="1"><mxGeometry x="-376.35" y="1058.8000000000002" width="112.65" height="62.5" as="geometry"/></mxCell><mxCell id="R9rB7OafcmL0Vme7xIAX-60" value="" style="endArrow=classic;html=1;exitX=0;exitY=0.25;exitDx=0;exitDy=0;entryX=1;entryY=0.25;entryDx=0;entryDy=0;edgeStyle=orthogonalEdgeStyle;" parent="1" source="R9rB7OafcmL0Vme7xIAX-59" target="R9rB7OafcmL0Vme7xIAX-58" edge="1"><mxGeometry width="50" height="50" relative="1" as="geometry"><mxPoint x="-256.35" y="1626.2" as="sourcePoint"/><mxPoint x="-206.35000000000002" y="1576.2" as="targetPoint"/></mxGeometry></mxCell><mxCell id="R9rB7OafcmL0Vme7xIAX-61" value="" style="endArrow=classic;html=1;entryX=0.5;entryY=1;entryDx=0;entryDy=0;entryPerimeter=0;edgeStyle=orthogonalEdgeStyle;rounded=0;exitX=0.5;exitY=0;exitDx=0;exitDy=0;" parent="1" source="R9rB7OafcmL0Vme7xIAX-58" target="R9rB7OafcmL0Vme7xIAX-7" edge="1"><mxGeometry width="50" height="50" relative="1" as="geometry"><mxPoint x="-530" y="380" as="sourcePoint"/><mxPoint x="-860" y="500" as="targetPoint"/><Array as="points"><mxPoint x="-483" y="940"/><mxPoint x="-370" y="940"/></Array></mxGeometry></mxCell><mxCell id="R9rB7OafcmL0Vme7xIAX-62" value="" style="endArrow=classic;html=1;entryX=1;entryY=0.5;entryDx=0;entryDy=0;edgeStyle=orthogonalEdgeStyle;rounded=0;exitX=0;exitY=0.25;exitDx=0;exitDy=0;" parent="1" source="R9rB7OafcmL0Vme7xIAX-55" target="R9rB7OafcmL0Vme7xIAX-59" edge="1"><mxGeometry width="50" height="50" relative="1" as="geometry"><mxPoint x="-237" y="860" as="sourcePoint"/><mxPoint x="-220.05" y="835" as="targetPoint"/><Array as="points"><mxPoint x="-250" y="1064"/><mxPoint x="-250" y="1090"/></Array></mxGeometry></mxCell><mxCell id="R9rB7OafcmL0Vme7xIAX-63" value="" style="endArrow=classic;html=1;exitX=0;exitY=0.5;exitDx=0;exitDy=0;entryX=0.5;entryY=1;entryDx=0;entryDy=0;strokeWidth=2;edgeStyle=orthogonalEdgeStyle;rounded=0;" parent="1" source="R9rB7OafcmL0Vme7xIAX-58" target="R9rB7OafcmL0Vme7xIAX-36" edge="1"><mxGeometry width="50" height="50" relative="1" as="geometry"><mxPoint x="-650" y="480" as="sourcePoint"/><mxPoint x="-600" y="430" as="targetPoint"/></mxGeometry></mxCell><mxCell id="R9rB7OafcmL0Vme7xIAX-64" value="" style="endArrow=classic;html=1;strokeWidth=2;exitX=0.25;exitY=1;exitDx=0;exitDy=0;entryX=0.25;entryY=0;entryDx=0;entryDy=0;rounded=0;edgeStyle=orthogonalEdgeStyle;" parent="1" source="R9rB7OafcmL0Vme7xIAX-37" target="R9rB7OafcmL0Vme7xIAX-58" edge="1"><mxGeometry width="50" height="50" relative="1" as="geometry"><mxPoint x="-780" y="480" as="sourcePoint"/><mxPoint x="-730" y="430" as="targetPoint"/><Array as="points"><mxPoint x="-560" y="940"/><mxPoint x="-512" y="940"/></Array></mxGeometry></mxCell><mxCell id="R9rB7OafcmL0Vme7xIAX-65" value="нотификация о &lt;br&gt;необходимости дисп.&lt;br&gt;в ЕПГУ" style="edgeLabel;html=1;align=center;verticalAlign=middle;resizable=0;points=[];" parent="R9rB7OafcmL0Vme7xIAX-64" vertex="1" connectable="0"><mxGeometry x="-0.3983" relative="1" as="geometry"><mxPoint x="10.309999999999999" y="-16.75" as="offset"/></mxGeometry></mxCell><mxCell id="R9rB7OafcmL0Vme7xIAX-66" value="" style="endArrow=classic;html=1;exitX=0.5;exitY=0.5;exitDx=0;exitDy=0;entryX=0;entryY=0.5;entryDx=0;entryDy=0;exitPerimeter=0;" parent="1" source="R9rB7OafcmL0Vme7xIAX-67" edge="1"><mxGeometry width="50" height="50" relative="1" as="geometry"><mxPoint x="-1760" y="359.25" as="sourcePoint"/><mxPoint x="-1679.0674698795183" y="360.25" as="targetPoint"/></mxGeometry></mxCell><mxCell id="R9rB7OafcmL0Vme7xIAX-67" value="Сотрудник СМО" style="shape=umlActor;verticalLabelPosition=bottom;verticalAlign=top;html=1;outlineConnect=0;" parent="1" vertex="1"><mxGeometry x="-1810" y="330" width="30" height="60" as="geometry"/></mxCell><mxCell id="R9rB7OafcmL0Vme7xIAX-68" value="Ingress Gw" style="rounded=1;whiteSpace=wrap;html=1;strokeWidth=2;align=center;verticalAlign=bottom;strokeColor=#36393d;fillColor=#eeeeee;fontSize=11;" parent="1" vertex="1"><mxGeometry x="-1679.067469879518" y="328.75" width="112.65" height="62.5" as="geometry"/></mxCell><mxCell id="R9rB7OafcmL0Vme7xIAX-69" value="Istio Envoy" style="rounded=1;whiteSpace=wrap;html=1;strokeWidth=2;align=center;fillColor=#647687;strokeColor=#314354;fontColor=#ffffff;fontSize=11;" parent="1" vertex="1"><mxGeometry x="-1665.75421686747" y="344" width="86.02409638554218" height="30" as="geometry"/></mxCell><mxCell id="R9rB7OafcmL0Vme7xIAX-70" value="" style="endArrow=classic;html=1;strokeColor=#000000;strokeWidth=1;exitX=1;exitY=0.5;exitDx=0;exitDy=0;entryX=0.5;entryY=1;entryDx=0;entryDy=0;edgeStyle=orthogonalEdgeStyle;rounded=0;" parent="1" source="R9rB7OafcmL0Vme7xIAX-68" target="R9rB7OafcmL0Vme7xIAX-21" edge="1"><mxGeometry width="50" height="50" relative="1" as="geometry"><mxPoint x="-1490" y="270" as="sourcePoint"/><mxPoint x="-1440" y="220" as="targetPoint"/></mxGeometry></mxCell><mxCell id="R9rB7OafcmL0Vme7xIAX-71" value="&lt;font&gt;&lt;font style=&quot;font-size: 12px&quot;&gt;Postgres&lt;/font&gt;&lt;br&gt;статус&lt;br&gt;&lt;/font&gt;" style="shape=cylinder3;whiteSpace=wrap;html=1;boundedLbl=1;backgroundOutline=1;size=15;" parent="1" vertex="1"><mxGeometry x="-276.29999999999995" y="758" width="80" height="80" as="geometry"/></mxCell><mxCell id="R9rB7OafcmL0Vme7xIAX-72" value="" style="endArrow=classic;html=1;edgeStyle=orthogonalEdgeStyle;rounded=0;exitX=0.75;exitY=0;exitDx=0;exitDy=0;" parent="1" source="R9rB7OafcmL0Vme7xIAX-58" target="R9rB7OafcmL0Vme7xIAX-71" edge="1"><mxGeometry width="50" height="50" relative="1" as="geometry"><mxPoint x="-454.7624999999998" y="1059.1999999999998" as="sourcePoint"/><mxPoint x="-237" y="730" as="targetPoint"/><Array as="points"><mxPoint x="-455" y="950"/><mxPoint x="-237" y="950"/></Array></mxGeometry></mxCell><mxCell id="R9rB7OafcmL0Vme7xIAX-73" value="" style="endArrow=classic;html=1;exitX=1;exitY=0.75;exitDx=0;exitDy=0;entryX=0;entryY=0.75;entryDx=0;entryDy=0;edgeStyle=orthogonalEdgeStyle;" parent="1" source="R9rB7OafcmL0Vme7xIAX-58" target="R9rB7OafcmL0Vme7xIAX-59" edge="1"><mxGeometry width="50" height="50" relative="1" as="geometry"><mxPoint x="-416.3499999999999" y="1084.8249999999998" as="sourcePoint"/><mxPoint x="-366.3499999999999" y="1084.4250000000002" as="targetPoint"/></mxGeometry></mxCell><mxCell id="R9rB7OafcmL0Vme7xIAX-74" value="" style="endArrow=classic;html=1;entryX=0;entryY=0.75;entryDx=0;entryDy=0;edgeStyle=orthogonalEdgeStyle;rounded=0;exitX=1;exitY=0.75;exitDx=0;exitDy=0;" parent="1" source="R9rB7OafcmL0Vme7xIAX-59" target="R9rB7OafcmL0Vme7xIAX-55" edge="1"><mxGeometry width="50" height="50" relative="1" as="geometry"><mxPoint x="-253.69999999999982" y="1100.0500000000002" as="sourcePoint"/><mxPoint x="-186.2974698795183" y="1073.9250000000002" as="targetPoint"/></mxGeometry></mxCell></root></mxGraphModel></diagram></mxfile>